<?xml version="1.0" encoding="UTF-8"?>
<svg version="1.1" xmlns="http://www.w3.org/2000/svg" width="1024" height="1192">
<path d="M0 0 C22.82773423 8.17484928 45.75058232 15.56375166 69.78613281 19.28393555 C71.55730469 19.57010742 71.55730469 19.57010742 73.36425781 19.86206055 C117.11452538 25.0088325 156.82447462 10.72695783 197.13378906 -4.48168945 C275.17402636 -33.82039406 354.60241508 -39.67101945 432.11279297 -4.6652832 C436.0548734 -2.82399511 439.92018707 -0.85881765 443.75488281 1.19604492 C445.19615605 1.96795761 446.64196244 2.7314329 448.09082031 3.48901367 C488.73986938 24.75508966 523.99286254 55.76570646 552.78613281 91.28393555 C549.68052709 94.72282579 546.47941095 96.72118872 542.41113281 98.90893555 C534.7691496 103.14232935 527.75919486 108.03424648 520.78613281 113.28393555 C520.20331543 113.72108887 519.62049805 114.15824219 519.02001953 114.60864258 C510.11912402 121.32792197 501.81307923 128.54616162 493.78613281 136.28393555 C493.23006348 136.81809082 492.67399414 137.35224609 492.10107422 137.90258789 C476.6335022 152.83756058 463.63615432 169.72411832 452.78613281 188.28393555 C452.43341309 188.87190918 452.08069336 189.45988281 451.71728516 190.06567383 C430.00658103 226.29487263 418.82816521 269.19488791 417.78613281 311.28393555 C417.74617187 312.34741211 417.70621094 313.41088867 417.66503906 314.5065918 C416.41232353 375.15276163 437.41965379 435.78734525 474.78613281 483.28393555 C475.90761719 484.72639648 475.90761719 484.72639648 477.05175781 486.19799805 C506.18678827 522.7786474 543.8769319 547.56858244 586.78613281 565.28393555 C586.20664733 570.13829104 584.69905671 574.18684736 582.64550781 578.5769043 C582.16797058 579.61960983 582.16797058 579.61960983 581.68078613 580.68338013 C580.64013204 582.94963972 579.58867756 585.21067671 578.53613281 587.47143555 C577.80635489 589.05032369 577.07686563 590.62934529 576.34765625 592.20849609 C574.17370466 596.90652313 571.98213208 601.59618216 569.78613281 606.28393555 C569.47450195 606.95058228 569.16287109 607.617229 568.84179688 608.30407715 C561.36938235 624.28321769 553.43728985 639.91176009 544.78613281 655.28393555 C544.30853516 656.14116211 543.8309375 656.99838867 543.33886719 657.8815918 C531.28558584 679.50899513 517.94231792 700.20877516 504.09863281 720.72143555 C503.52958221 721.56493561 502.96053162 722.40843567 502.37423706 723.27749634 C482.29409558 753.00571474 482.29409558 753.00571474 472.22363281 765.97143555 C471.68609375 766.6680127 471.14855469 767.36458984 470.59472656 768.08227539 C469.509113 769.48697997 468.421771 770.89035081 467.33251953 772.29223633 C465.87516088 774.16927009 464.42571579 776.05215871 462.97753906 777.9362793 C445.10813984 801.06783289 424.9733628 824.38326016 401.78613281 842.28393555 C400.74615496 843.1340948 399.70851462 843.98711904 398.67285156 844.8425293 C375.33194768 863.9530228 347.10496579 879.51244905 316.78613281 883.28393555 C315.93664062 883.39350586 315.08714844 883.50307617 314.21191406 883.6159668 C294.28590981 885.7976461 274.01442901 883.82280665 254.78613281 878.28393555 C253.76036133 877.9900293 253.76036133 877.9900293 252.71386719 877.69018555 C240.02067872 873.91174805 228.07238543 868.36077035 216.03613281 862.90893555 C182.32521463 847.64534009 148.06445377 835.26833552 110.59082031 835.08081055 C109.64848541 835.07379623 108.70615051 835.06678192 107.73526001 835.05955505 C104.71050179 835.04214635 101.68593929 835.03570279 98.66113281 835.03393555 C97.62835205 835.0332608 96.59557129 835.03258606 95.53149414 835.03189087 C80.40333953 835.04761385 65.68200622 835.39762719 50.78613281 838.28393555 C49.90876465 838.44490723 49.03139648 838.60587891 48.12744141 838.77172852 C23.31590621 843.43480996 0.19619642 852.71648556 -22.76921082 862.89097595 C-68.31783251 883.02275724 -113.5008875 892.40450255 -161.51757812 874.42114258 C-179.25049674 867.46260684 -195.51960562 857.33922769 -210.21386719 845.28393555 C-211.13039062 844.55819336 -212.04691406 843.83245117 -212.99121094 843.0847168 C-228.95429248 830.3279931 -244.57875048 815.86499318 -257.21386719 799.78393555 C-259.26352345 797.22186521 -261.42624544 794.81948411 -263.65136719 792.40893555 C-268.88009728 786.64831739 -273.56542416 780.51237568 -278.21386719 774.28393555 C-278.73609863 773.58623047 -279.25833008 772.88852539 -279.79638672 772.16967773 C-335.59302608 697.48074943 -381.26213859 614.85427759 -437.45214844 351.7878418 C-437.45701326 351.12933605 -437.46187809 350.47083031 -437.46689034 349.79236984 C-437.50314456 344.81039771 -437.51958335 339.82852889 -437.52636719 334.84643555 C-437.52751778 334.11276386 -437.52866837 333.37909218 -437.52985382 332.62318802 C-437.55630171 308.31977238 -436.83515599 284.35626459 -433.21386719 260.28393555 C-433.10731812 259.56534363 -433.00076904 258.84675171 -432.89099121 258.10638428 C-423.91972992 198.14985207 -402.70401045 140.68758567 -364.21386719 93.28393555 C-363.45847656 92.33776367 -362.70308594 91.3915918 -361.92480469 90.41674805 C-356.89439705 84.17627672 -351.62657962 78.19346699 -346.21386719 72.28393555 C-345.31092126 71.27666253 -344.40860472 70.26882505 -343.50683594 69.26049805 C-332.68800579 57.24652181 -320.93934778 46.26290953 -308.21386719 36.28393555 C-307.24578125 35.50920898 -306.27769531 34.73448242 -305.28027344 33.9362793 C-286.43263165 19.08876124 -265.87693078 6.56321031 -244.21386719 -3.71606445 C-243.5490332 -4.03784668 -242.88419922 -4.35962891 -242.19921875 -4.69116211 C-215.78648156 -17.40442551 -186.438836 -26.00156192 -157.21386719 -28.71606445 C-156.13492187 -28.82563477 -155.05597656 -28.93520508 -153.94433594 -29.0480957 C-100.17872978 -33.74241522 -49.91111965 -17.8828063 0 0 Z " fill="#CF0F2A" transform="translate(437.2138671875,307.716064453125)"/>
<path d="M0 0 C22.82773423 8.17484928 45.75058232 15.56375166 69.78613281 19.28393555 C71.55730469 19.57010742 71.55730469 19.57010742 73.36425781 19.86206055 C117.11452538 25.0088325 156.82447462 10.72695783 197.13378906 -4.48168945 C275.17402636 -33.82039406 354.60241508 -39.67101945 432.11279297 -4.6652832 C436.0548734 -2.82399511 439.92018707 -0.85881765 443.75488281 1.19604492 C445.19615605 1.96795761 446.64196244 2.7314329 448.09082031 3.48901367 C488.73986938 24.75508966 523.99286254 55.76570646 552.78613281 91.28393555 C549.68052709 94.72282579 546.47941095 96.72118872 542.41113281 98.90893555 C534.7691496 103.14232935 527.75919486 108.03424648 520.78613281 113.28393555 C520.20331543 113.72108887 519.62049805 114.15824219 519.02001953 114.60864258 C510.11912402 121.32792197 501.81307923 128.54616162 493.78613281 136.28393555 C493.23006348 136.81809082 492.67399414 137.35224609 492.10107422 137.90258789 C476.6335022 152.83756058 463.63615432 169.72411832 452.78613281 188.28393555 C452.43341309 188.87190918 452.08069336 189.45988281 451.71728516 190.06567383 C435.89559454 216.46772747 427.41691864 245.4453993 420.78613281 275.28393555 C138.63613281 275.28393555 -143.51386719 275.28393555 -434.21386719 275.28393555 C-433.51021309 264.72912401 -432.57062784 255.00799651 -430.65136719 244.72143555 C-430.45737335 243.66669037 -430.45737335 243.66669037 -430.25946045 242.59063721 C-420.15811653 188.08371816 -399.33568068 136.53922164 -364.21386719 93.28393555 C-363.45847656 92.33776367 -362.70308594 91.3915918 -361.92480469 90.41674805 C-356.89439705 84.17627672 -351.62657962 78.19346699 -346.21386719 72.28393555 C-345.31092126 71.27666253 -344.40860472 70.26882505 -343.50683594 69.26049805 C-332.68800579 57.24652181 -320.93934778 46.26290953 -308.21386719 36.28393555 C-307.24578125 35.50920898 -306.27769531 34.73448242 -305.28027344 33.9362793 C-286.43263165 19.08876124 -265.87693078 6.56321031 -244.21386719 -3.71606445 C-243.5490332 -4.03784668 -242.88419922 -4.35962891 -242.19921875 -4.69116211 C-215.78648156 -17.40442551 -186.438836 -26.00156192 -157.21386719 -28.71606445 C-156.13492187 -28.82563477 -155.05597656 -28.93520508 -153.94433594 -29.0480957 C-100.17872978 -33.74241522 -49.91111965 -17.8828063 0 0 Z " fill="#FEC627" transform="translate(437.2138671875,307.716064453125)"/>
<path d="M0 0 C319.77 0 639.54 0 969 0 C968.2264214 3.867893 967.52034008 6.39386828 965.91796875 9.859375 C965.27130249 11.26630615 965.27130249 11.26630615 964.61157227 12.70166016 C964.14162842 13.7076123 963.67168457 14.71356445 963.1875 15.75 C962.69757568 16.80622559 962.20765137 17.86245117 961.70288086 18.95068359 C960.14259865 22.30394123 958.57222879 25.65232917 957 29 C956.50467773 30.06057617 956.00935547 31.12115234 955.49902344 32.21386719 C948.52459169 47.11819553 941.06153399 61.65602918 933 76 C932.52095215 76.86012695 932.0419043 77.72025391 931.54833984 78.60644531 C919.49633688 100.23071593 906.15430125 120.927631 892.3125 141.4375 C891.7434494 142.28100006 891.1743988 143.12450012 890.58810425 143.99356079 C870.50796277 173.72177919 870.50796277 173.72177919 860.4375 186.6875 C859.89996094 187.38407715 859.36242187 188.0806543 858.80859375 188.79833984 C857.72298019 190.20304442 856.63563819 191.60641527 855.54638672 193.00830078 C854.08902807 194.88533455 852.63958297 196.76822316 851.19140625 198.65234375 C833.32200703 221.78389734 813.18722999 245.09932461 790 263 C788.96002215 263.85015925 787.92238181 264.7031835 786.88671875 265.55859375 C763.54581487 284.66908726 735.31883298 300.22851351 705 304 C704.15050781 304.10957031 703.30101562 304.21914062 702.42578125 304.33203125 C682.49977699 306.51371055 662.2282962 304.5388711 643 299 C641.97422852 298.70609375 641.97422852 298.70609375 640.92773438 298.40625 C628.23454591 294.6278125 616.28625262 289.0768348 604.25 283.625 C570.53908181 268.36140454 536.27832095 255.98439998 498.8046875 255.796875 C497.8623526 255.78986069 496.9200177 255.78284637 495.9491272 255.77561951 C492.92436898 255.7582108 489.89980648 255.75176725 486.875 255.75 C485.84221924 255.74932526 484.80943848 255.74865051 483.74536133 255.74795532 C468.61720672 255.76367831 453.89587341 256.11369165 439 259 C438.12263184 259.16097168 437.24526367 259.32194336 436.34130859 259.48779297 C411.52977339 264.15087442 388.4100636 273.43255001 365.44465637 283.60704041 C319.89603468 303.73882169 274.71297968 313.120567 226.69628906 295.13720703 C208.96337045 288.17867129 192.69426157 278.05529215 178 266 C177.08347656 265.27425781 176.16695312 264.54851562 175.22265625 263.80078125 C159.25957471 251.04405755 143.63511671 236.58105763 131 220.5 C128.95034373 217.93792967 126.78762175 215.53554856 124.5625 213.125 C119.33376991 207.36438184 114.64844303 201.22844013 110 195 C109.47776855 194.30229492 108.95553711 193.60458984 108.41748047 192.88574219 C69.08615984 140.23715582 35.27142524 84.32243022 8.9375 24.0625 C8.65928406 23.42942932 8.38106812 22.79635864 8.09442139 22.144104 C7.29464977 20.31899028 6.50461937 18.48961771 5.71484375 16.66015625 C5.26230225 15.61480713 4.80976074 14.56945801 4.34350586 13.49243164 C2.64712017 9.08269198 1.357655 4.52551668 0 0 Z " fill="#AF1CAA" transform="translate(49,887)"/>
<path d="M0 0 C282.15 0 564.3 0 855 0 C854.34 6.27 853.68 12.54 853 19 C850.06094869 60.44062346 853.42659502 109.50684825 873.12426758 147.1484375 C874 149 874 149 874 152 C586.9 152 299.8 152 4 152 C2.76499753 145.82498764 1.63340213 139.89569771 0.96484375 133.67578125 C0.88126114 132.92644821 0.79767853 132.17711517 0.71156311 131.40507507 C0.53727472 129.83319095 0.36512635 128.26106813 0.19506836 126.6887207 C-0.06015626 124.3341224 -0.32348456 121.98053608 -0.58789062 119.62695312 C-0.75829948 118.08078276 -0.92823595 116.53456025 -1.09765625 114.98828125 C-1.17371597 114.30961502 -1.2497757 113.63094879 -1.32814026 112.93171692 C-2.64714705 100.60572623 -3.15731291 88.29787952 -3.16796875 75.90625 C-3.17120051 74.50305145 -3.17456582 73.09985321 -3.17805481 71.69665527 C-3.18398304 68.77562686 -3.18590144 65.85462774 -3.18530273 62.93359375 C-3.18522179 59.99212452 -3.19212449 57.05081209 -3.20581055 54.109375 C-3.42240649 6.84481298 -3.42240649 6.84481298 0 0 Z " fill="#FE661C" transform="translate(3,583)"/>
<path d="M0 0 C22.82773423 8.17484928 45.75058232 15.56375166 69.78613281 19.28393555 C71.55730469 19.57010742 71.55730469 19.57010742 73.36425781 19.86206055 C117.11452538 25.0088325 156.82447462 10.72695783 197.13378906 -4.48168945 C275.17402636 -33.82039406 354.60241508 -39.67101945 432.11279297 -4.6652832 C436.0548734 -2.82399511 439.92018707 -0.85881765 443.75488281 1.19604492 C445.19615605 1.96795761 446.64196244 2.7314329 448.09082031 3.48901367 C488.73986938 24.75508966 523.99286254 55.76570646 552.78613281 91.28393555 C549.68052709 94.72282579 546.47941095 96.72118872 542.41113281 98.90893555 C537.3359161 101.72042968 532.51398981 104.73507825 527.78613281 108.09643555 C527.22979753 108.48345147 526.67346224 108.87046739 526.10026831 109.26921107 C523.11208412 111.40025314 520.71988956 113.36003121 518.28974998 116.15160733 C511.01954996 123.84109996 503.69563612 125.26642589 493.36955769 125.57783164 C486.88072652 125.70551049 480.3978608 125.67245289 473.90863335 125.59392446 C469.32725484 125.55076227 464.74608731 125.57197496 460.16458595 125.58487779 C452.142144 125.59867517 444.12064967 125.57172034 436.09838867 125.51782036 C424.16985392 125.43786082 412.24181462 125.42129167 400.31304242 125.41757847 C380.24552319 125.40954293 360.17846142 125.35029573 340.11114883 125.26177025 C320.24460793 125.17429814 300.3782081 125.10964392 280.51150131 125.07540321 C279.27584234 125.07326073 278.04018337 125.07111825 276.76708018 125.06891084 C270.49168605 125.05814862 264.21629132 125.0477935 257.94089626 125.03759507 C213.50259601 124.96464435 169.06454774 124.84063325 124.62646484 124.68652344 C113.86014936 124.64920882 103.0938333 124.61207401 92.32751465 124.57568359 C91.65976572 124.57342641 90.99201679 124.57116922 90.30403305 124.56884363 C59.24868681 124.46411397 28.1932895 124.38827874 -2.86215552 124.31987354 C-4.87886805 124.31543085 -6.89558054 124.31097571 -8.91229304 124.30651804 C-22.27741014 124.27699612 -35.64252829 124.24797292 -49.0076472 124.21928039 C-76.23346741 124.16082069 -103.45928021 124.09922042 -130.68508911 124.03572083 C-131.93686317 124.03280515 -133.18863723 124.02988947 -134.47834384 124.02688544 C-218.05700107 123.83185096 -301.63545561 123.563609 -385.21386719 123.28393555 C-384.09811848 121.52466857 -382.98159526 119.76589279 -381.86474609 118.00732422 C-381.24306549 117.02785324 -380.62138489 116.04838226 -379.98086548 115.03923035 C-370.16550473 99.73405854 -358.5394257 85.62082194 -346.21386719 72.28393555 C-345.31566965 71.2835861 -344.41859771 70.28222523 -343.52246094 69.2800293 C-332.70170935 57.25676861 -320.94567779 46.26787336 -308.21386719 36.28393555 C-307.24578125 35.50920898 -306.27769531 34.73448242 -305.28027344 33.9362793 C-286.43263165 19.08876124 -265.87693078 6.56321031 -244.21386719 -3.71606445 C-243.5490332 -4.03784668 -242.88419922 -4.35962891 -242.19921875 -4.69116211 C-215.78648156 -17.40442551 -186.438836 -26.00156192 -157.21386719 -28.71606445 C-156.13492188 -28.82563477 -155.05597656 -28.93520508 -153.94433594 -29.0480957 C-100.17872978 -33.74241522 -49.91111965 -17.8828063 0 0 Z " fill="#74BD20" transform="translate(437.2138671875,307.716064453125)"/>
<path d="M0 0 C264.66 0 529.32 0 802 0 C797.68407391 6.78216958 793.413022 13.40236086 788.6875 19.875 C788.12627441 20.6474707 787.56504883 21.41994141 786.98681641 22.21582031 C782.1081759 28.90470416 777.09903831 35.47778513 772 42 C771.1310076 43.12721671 770.26253069 44.25483099 769.39453125 45.3828125 C751.44629772 68.60360473 731.28554268 92.02342665 708 110 C706.96002215 110.85015925 705.92238181 111.7031835 704.88671875 112.55859375 C681.54581487 131.66908726 653.31883298 147.22851351 623 151 C622.15050781 151.10957031 621.30101562 151.21914062 620.42578125 151.33203125 C600.49977699 153.51371055 580.2282962 151.5388711 561 146 C560.31615234 145.8040625 559.63230469 145.608125 558.92773438 145.40625 C546.23454591 141.6278125 534.28625262 136.0768348 522.25 130.625 C488.53908181 115.36140454 454.27832095 102.98439998 416.8046875 102.796875 C415.39118515 102.78635353 415.39118515 102.78635353 413.9491272 102.77561951 C410.92436898 102.7582108 407.89980648 102.75176725 404.875 102.75 C403.84221924 102.74932526 402.80943848 102.74865051 401.74536133 102.74795532 C386.61720672 102.76367831 371.89587341 103.11369165 357 106 C356.12263184 106.16097168 355.24526367 106.32194336 354.34130859 106.48779297 C329.52977339 111.15087442 306.4100636 120.43255001 283.44465637 130.60704041 C237.89603468 150.73882169 192.71297968 160.120567 144.69628906 142.13720703 C126.96337045 135.17867129 110.69426157 125.05529215 96 113 C94.62521484 111.91138672 94.62521484 111.91138672 93.22265625 110.80078125 C77.25957471 98.04405755 61.63511671 83.58105763 49 67.5 C46.95034373 64.93792967 44.78762175 62.53554856 42.5625 60.125 C37.33376991 54.36438184 32.64844303 48.22844013 28 42 C27.47776855 41.30229492 26.95553711 40.60458984 26.41748047 39.88574219 C19.53665622 30.67512672 12.77706116 21.37715592 6.125 12 C5.20509277 10.71790649 5.20509277 10.71790649 4.26660156 9.40991211 C3.70682617 8.61464111 3.14705078 7.81937012 2.5703125 7 C2.07289551 6.29875 1.57547852 5.5975 1.06298828 4.875 C0 3 0 3 0 0 Z " fill="#00A0DD" transform="translate(131,1040)"/>
<path d="M0 0 C2.57226134 9.86887518 2.35473964 19.68582796 2.3125 29.8125 C2.30926727 31.19284424 2.30926727 31.19284424 2.30596924 32.60107422 C2.25562854 45.95620038 1.87701993 58.91237993 -1 72 C-1.20399414 72.96679688 -1.40798828 73.93359375 -1.61816406 74.9296875 C-11.2213521 119.77252187 -30.96945702 161.41240753 -60 197 C-60.45310547 197.55606934 -60.90621094 198.11213867 -61.37304688 198.68505859 C-72.06552263 211.69863762 -83.66583793 223.67311704 -97 234 C-97.98097656 234.78632813 -98.96195313 235.57265625 -99.97265625 236.3828125 C-140.94367105 268.98333574 -190.55573245 287.93432298 -243 287 C-244.77044358 276.67886401 -245.40469098 266.69749644 -245.375 256.25 C-245.37412384 255.4898761 -245.37324768 254.7297522 -245.37234497 253.94659424 C-245.17281395 201.03704454 -223.54009194 149.3284213 -191.38916016 107.79492188 C-190.45722253 106.59077329 -189.53247508 105.38102799 -188.61474609 104.16601562 C-181.67600343 95.0037159 -173.97941638 86.69228714 -165.875 78.5625 C-164.96903076 77.65105225 -164.06306152 76.73960449 -163.12963867 75.80053711 C-145.95027382 58.80136996 -126.04321955 44.78638561 -105 33 C-104.10297363 32.49726562 -103.20594727 31.99453125 -102.28173828 31.4765625 C-76.82981069 17.37487929 -49.82688253 6.95800551 -21.1875 1.5625 C-20.32294189 1.39830566 -19.45838379 1.23411133 -18.56762695 1.06494141 C-12.34647906 -0.00951659 -6.3046454 -0.16909587 0 0 Z " fill="#74BD20" transform="translate(737,0)"/>
</svg>
