<?xml version="1.0" encoding="UTF-8"?>
<svg version="1.1" xmlns="http://www.w3.org/2000/svg" width="612" height="128">
<path d="M0 0 C1.08152344 0.48597656 2.16304688 0.97195312 3.27734375 1.47265625 C19.14580864 9.30504907 29.9620887 22.00236708 36.24609375 38.42578125 C41.53883696 56.49789407 40.29140285 74.81770963 31.875 91.75 C22.74949514 107.58829628 8.65239837 117.76804636 -8.6796875 123.140625 C-25.55201889 127.07616165 -44.05409111 124.5930736 -58.875 115.75 C-74.44421414 104.92635714 -85.1055434 90.71807486 -89 72 C-89.43319557 68.0929601 -89.52526973 64.24146322 -89.5 60.3125 C-89.49427979 59.26811768 -89.48855957 58.22373535 -89.48266602 57.14770508 C-89.08547732 39.77705213 -82.4677782 26.08457273 -70.56640625 13.41796875 C-52.42359819 -3.67548359 -23.28312564 -10.6753923 0 0 Z " fill="#F7931A" transform="translate(89,4)"/>
<path d="M0 0 C-0.58893033 5.38151446 -1.49497416 10.53495954 -2.84765625 15.78125 C-3.02380966 16.48020386 -3.19996307 17.17915771 -3.38145447 17.89929199 C-3.93733802 20.10068767 -4.49979075 22.30034035 -5.0625 24.5 C-5.44379781 26.00509733 -5.82466109 27.51030481 -6.20507812 29.015625 C-7.13170751 32.67837411 -8.06422644 36.3395769 -9 40 C-7.77023438 39.67644531 -6.54046875 39.35289063 -5.2734375 39.01953125 C3.64097445 36.80171341 12.13665404 37.70955585 20.234375 42.25390625 C28.11696559 47.6917084 31.48406313 54.58737896 33.4921875 63.80859375 C36.35707851 81.81333188 30.88798017 96.60625087 20.75 111.25 C7.39158211 124.60841789 -6.58882361 128.25770704 -24.77758789 128.32568359 C-34.71132004 128.23344327 -45.49032601 127.67311599 -54 122 C-51.08523494 108.69510095 -48.00943911 95.43252966 -44.8671875 82.1796875 C-44.38435759 80.13951778 -43.90162224 78.09932568 -43.41897583 76.05911255 C-42.41630039 71.82178181 -41.41282496 67.58464168 -40.40869141 63.34765625 C-39.12537387 57.9325599 -37.84359444 52.51710095 -36.5623455 47.10151482 C-35.56932837 42.90459179 -34.57576203 38.70779895 -33.58200455 34.51105118 C-33.10906222 32.51368916 -32.63622879 30.51630135 -32.16350937 28.51888657 C-31.5038926 25.73235738 -30.84359856 22.94598955 -30.18310547 20.15966797 C-29.99086395 19.3470903 -29.79862244 18.53451263 -29.60055542 17.6973114 C-28.43608325 12.78884868 -27.23248819 7.89184174 -26 3 C-22.98017116 2.49317558 -19.95937183 1.99436665 -16.9375 1.5 C-15.66616211 1.28537109 -15.66616211 1.28537109 -14.36914062 1.06640625 C-9.50727611 0.27799579 -4.92471814 -0.16037074 0 0 Z M-15 63 C-15.8926118 65.98539632 -16.66732045 68.93215368 -17.3828125 71.9609375 C-17.60194305 72.86244537 -17.82107361 73.76395325 -18.04684448 74.69277954 C-18.50957236 76.60349182 -18.96829018 78.51517894 -19.42333984 80.42773438 C-20.12088522 83.35771622 -20.83082008 86.28447467 -21.54296875 89.2109375 C-21.99031773 91.06492712 -22.43695593 92.91908841 -22.8828125 94.7734375 C-23.09527618 95.65164154 -23.30773987 96.52984558 -23.52664185 97.43466187 C-23.81727005 98.66075668 -23.81727005 98.66075668 -24.11376953 99.91162109 C-24.28538605 100.63030365 -24.45700256 101.34898621 -24.63381958 102.08944702 C-25.09411792 104.16684061 -25.09411792 104.16684061 -25 107 C-17.23921961 108.35505689 -11.56269844 108.01672919 -4.8671875 103.58984375 C2.44315266 97.71099605 7.87775173 89.42332274 9 80 C9.6451785 72.57458198 8.83387305 67.4745364 4.8125 61.125 C-1.99502547 56.89963936 -8.51535188 59.75767594 -15 63 Z " fill="#4D4D4D" transform="translate(184,0)"/>
<path d="M0 0 C9.15021017 9.78859692 11.30521698 20.3504392 11 33.3515625 C10.20376567 48.80514384 4.21340593 63.34270665 -7.3125 73.875 C-16.92110388 81.18095029 -25.79333303 84.40872332 -37.8125 84.3125 C-38.69808594 84.33248047 -39.58367187 84.35246094 -40.49609375 84.37304688 C-49.69809199 84.36629064 -56.79062242 81.15993877 -63.51953125 74.94140625 C-72.69334596 64.36853483 -72.21719698 51.05843175 -71.3125 37.875 C-69.49350349 24.7072399 -62.80839509 11.83559127 -52.39453125 3.5546875 C-36.91050026 -7.99229341 -16.85291076 -10.81130124 0 0 Z M-39.5625 22.4375 C-45.5698079 31.24385327 -48.3508745 41.59872039 -46.625 52.125 C-45.69002983 56.21469947 -44.38189639 58.90152225 -41.3125 61.875 C-38.01550301 63.5234985 -34.86193076 63.49887606 -31.3125 62.875 C-23.59661819 59.40157148 -19.3355245 54.11684486 -16.34765625 46.375 C-13.72012809 38.04440381 -12.31607331 28.36152187 -16.0625 20.1875 C-17.65001843 17.24555117 -19.21711662 16.11910601 -22.3125 14.875 C-29.41342261 13.90669237 -35.14882457 17.00957088 -39.5625 22.4375 Z " fill="#4D4D4D" transform="translate(473.3125,44.125)"/>
<path d="M0 0 C6.6101235 6.91058366 7.48267216 13.49554232 7.50634766 22.70832825 C7.23214402 34.50641937 3.92489186 45.82409881 1 57.1875 C0.41984414 59.5092591 -0.15829448 61.83152323 -0.734375 64.15429688 C-2.12950377 69.77690635 -3.56520693 75.38679913 -5 81 C-13.25 81 -21.5 81 -30 81 C-28.87551911 70.87967198 -28.87551911 70.87967198 -27.96850586 67.17382812 C-27.66830788 65.92708313 -27.66830788 65.92708313 -27.36204529 64.65515137 C-27.14846878 63.78926392 -26.93489227 62.92337646 -26.71484375 62.03125 C-26.26211587 60.14198791 -25.80964984 58.25266306 -25.35742188 56.36328125 C-24.64793791 53.42662177 -23.93525229 50.49080947 -23.2175293 47.55615234 C-22.52024849 44.69574619 -21.83562016 41.83252877 -21.15234375 38.96875 C-20.93674301 38.10286255 -20.72114227 37.2369751 -20.49900818 36.34484863 C-18.23370242 26.80358024 -18.23370242 26.80358024 -20.1953125 17.484375 C-22.49181314 15.59547837 -23.92320354 15.41149646 -26.875 15.25 C-27.71804688 15.19328125 -28.56109375 15.1365625 -29.4296875 15.078125 C-31.95505219 15.00136619 -34.47366306 14.99472691 -37 15 C-37.22276611 16.0916748 -37.44553223 17.18334961 -37.67504883 18.30810547 C-40.20998535 30.60375192 -43.0188406 42.82408828 -45.9465332 55.03173828 C-46.70135635 58.18284511 -47.44945714 61.33550321 -48.19726562 64.48828125 C-48.67668499 66.49488688 -49.15648748 68.50140102 -49.63671875 70.5078125 C-49.85962082 71.44924103 -50.08252289 72.39066956 -50.31217957 73.36062622 C-50.62304253 74.6499556 -50.62304253 74.6499556 -50.94018555 75.96533203 C-51.12131393 76.72298859 -51.30244232 77.48064514 -51.48905945 78.26126099 C-52 80 -52 80 -53 81 C-54.85369611 81.08737645 -56.71067541 81.10698153 -58.56640625 81.09765625 C-59.69111328 81.09443359 -60.81582031 81.09121094 -61.97460938 81.08789062 C-63.15861328 81.07951172 -64.34261719 81.07113281 -65.5625 81.0625 C-66.75037109 81.05798828 -67.93824219 81.05347656 -69.16210938 81.04882812 C-72.10812226 81.03699675 -75.05403681 81.02051287 -78 81 C-74.97414449 66.05013053 -71.58815737 51.18455566 -68.06363869 36.34538269 C-67.2194056 32.79015369 -66.38352856 29.23338636 -65.56616211 25.671875 C-64.76237295 22.17024168 -63.93900045 18.67376945 -63.10136223 15.18008423 C-62.6377959 13.2249921 -62.1941301 11.26521563 -61.75086975 9.30541992 C-61.46384689 8.12568604 -61.17682404 6.94595215 -60.88110352 5.73046875 C-60.637798 4.69301514 -60.39449249 3.65556152 -60.14381409 2.58666992 C-58.69358835 -0.69293237 -57.20176683 -1.50012203 -54 -3 C-51.16796875 -3.9140625 -51.16796875 -3.9140625 -48.1875 -4.625 C-47.21167969 -4.86476562 -46.23585938 -5.10453125 -45.23046875 -5.3515625 C-30.59140871 -8.28999535 -12.26718731 -9.9849199 0 0 Z " fill="#4D4D4D" transform="translate(605,45)"/>
<path d="M0 0 C-0.60497494 5.65492364 -1.62269586 11.00330522 -3.0625 16.5 C-4.0215625 20.2125 -4.0215625 20.2125 -5 24 C7.87 24.495 7.87 24.495 21 25 C19 36 19 36 16 46 C7.09 46 -1.82 46 -11 46 C-11.66 49.96 -12.32 53.92 -13 58 C-14.05529162 62.51856685 -15.16062937 67.01371602 -16.3203125 71.50585938 C-17.54522628 76.43103353 -18.4397066 80.88102764 -18 86 C-16.33821811 89.16348401 -16.33821811 89.16348401 -13 91 C-5.91657186 92.09326222 1.11437698 90.67286286 8 89 C8.70132913 95.70019789 9.11044961 102.26257354 9 109 C7.60550891 109.483059 6.20933293 109.96125517 4.8125 110.4375 C4.03519531 110.70433594 3.25789063 110.97117187 2.45703125 111.24609375 C-3.31443471 113.01698871 -8.75035647 113.21449915 -14.75 113.25 C-15.6059375 113.270625 -16.461875 113.29125 -17.34375 113.3125 C-24.51835531 113.35598246 -30.67557177 112.06853312 -36.8125 108.25 C-43.63276647 101.23486878 -44.25544915 94.10780437 -44.17431641 84.7109375 C-43.92049322 79.30741876 -42.91881667 74.25603775 -41.6875 69 C-41.43331299 67.8644165 -41.17912598 66.72883301 -40.91723633 65.55883789 C-39.96777439 61.3669404 -38.98700393 57.18318068 -38 53 C-37.78504883 52.08579285 -37.57009766 51.17158569 -37.34863281 50.22967529 C-34.69267625 38.93650514 -32.00985202 27.64976591 -29.29296875 16.37109375 C-29.0765271 15.46918808 -28.86008545 14.56728241 -28.63708496 13.63804626 C-28.43611206 12.80672684 -28.23513916 11.97540741 -28.02807617 11.11889648 C-27.85298019 10.392827 -27.67788422 9.66675751 -27.4974823 8.91868591 C-27.06733102 7.25968175 -26.54197093 5.6259128 -26 4 C-22.96763581 3.1549149 -20.09153252 2.53211299 -17 2 C-15.98035156 1.81308594 -14.96070313 1.62617188 -13.91015625 1.43359375 C-9.2164938 0.60393524 -4.77857175 -0.1220803 0 0 Z " fill="#4D4D4D" transform="translate(310,15)"/>
<path d="M0 0 C0.91676514 -0.00128906 1.83353027 -0.00257812 2.77807617 -0.00390625 C10.36948302 0.11357266 16.76326523 1.44544789 23.8125 4.375 C23.23710686 9.57785068 21.51831107 13.61456036 19.25 18.25 C18.92064453 18.93835938 18.59128906 19.62671875 18.25195312 20.3359375 C17.44554639 22.0188733 16.62995506 23.69740293 15.8125 25.375 C15.12285156 25.1584375 14.43320312 24.941875 13.72265625 24.71875 C4.5596343 22.00378053 -3.48033635 20.66602374 -12.1875 25.375 C-18.28055907 29.36657543 -21.55510352 34.3145709 -23.7734375 41.19140625 C-25.23598875 48.90429447 -25.40860126 57.59108727 -21.1875 64.375 C-16.66794462 68.61208317 -12.16697872 68.58238971 -6.26171875 68.54296875 C-1.4793797 68.28167195 3.13867754 67.38751086 7.8125 66.375 C8.93073815 68.61147631 9.00646061 70.02391529 9.12890625 72.5078125 C9.17080078 73.31347656 9.21269531 74.11914062 9.25585938 74.94921875 C9.29517578 75.79097656 9.33449219 76.63273437 9.375 77.5 C9.43977539 78.77423828 9.43977539 78.77423828 9.50585938 80.07421875 C9.61204236 82.17428223 9.71278497 84.27461948 9.8125 86.375 C8.56358386 86.85698463 7.31331192 87.33545677 6.0625 87.8125 C5.36640625 88.07933594 4.6703125 88.34617187 3.953125 88.62109375 C-1.80597683 90.64939056 -7.24769075 90.6299227 -13.3125 90.6875 C-14.80523437 90.73100586 -14.80523437 90.73100586 -16.328125 90.77539062 C-25.85401734 90.85622392 -33.88840111 88.19826551 -41.3671875 82.203125 C-48.55172613 74.98775144 -51.38541656 65.85521391 -51.51733398 55.8815918 C-51.39388427 39.81052557 -47.85787074 26.12186129 -36.5625 14 C-26.03199738 4.14370639 -14.16280527 -0.02068506 0 0 Z " fill="#4D4D4D" transform="translate(380.1875,37.625)"/>
<path d="M0 0 C2.31 0.66 4.62 1.32 7 2 C6.34 5.96 5.68 9.92 5 14 C6.65 13.67 8.3 13.34 10 13 C10.66 10.03 11.32 7.06 12 4 C14.64 4.33 17.28 4.66 20 5 C19.67 8.96 19.34 12.92 19 17 C20.2375 17.556875 21.475 18.11375 22.75 18.6875 C26.51606261 20.6105958 28.9557534 22.16703762 31 26 C31.91676608 31.69027225 31.15012134 36.09981125 28 41 C26.3125 42.875 26.3125 42.875 25 44 C25.825 44.825 26.65 45.65 27.5 46.5 C29.9789101 49.50859175 30.69747223 51.91790269 30.421875 55.9140625 C29.38732897 61.02931787 27.19983735 64.8586913 23.4375 68.4375 C19.16334593 71.17734235 15.79308475 71.10819344 10.8125 71.0625 C9.54019531 71.05347656 8.26789063 71.04445313 6.95703125 71.03515625 C5.98121094 71.02355469 5.00539062 71.01195313 4 71 C3.01 74.3 2.02 77.6 1 81 C-2.465 80.505 -2.465 80.505 -6 80 C-5 71.42857143 -5 71.42857143 -4 68 C-5.65 67.67 -7.3 67.34 -9 67 C-9.144375 68.258125 -9.28875 69.51625 -9.4375 70.8125 C-9.73748686 73.42667123 -10.15813297 75.47439892 -11 78 C-13.64 77.67 -16.28 77.34 -19 77 C-18.34 73.37 -17.68 69.74 -17 66 C-18.4025 65.525625 -19.805 65.05125 -21.25 64.5625 C-22.03890625 64.29566406 -22.8278125 64.02882813 -23.640625 63.75390625 C-25.7352255 63.0846051 -27.86671967 62.53332008 -30 62 C-29.01 59.03 -28.02 56.06 -27 53 C-24.36 53 -21.72 53 -19 53 C-18.01675491 49.14171102 -17.03834316 45.2822305 -16.06420898 41.42163086 C-15.57069447 39.46990705 -15.07346423 37.51912402 -14.57617188 35.56835938 C-14.10727539 33.70727539 -14.10727539 33.70727539 -13.62890625 31.80859375 C-13.1968689 30.10401001 -13.1968689 30.10401001 -12.75610352 28.36499023 C-11.98241806 24.92175269 -11.45312868 21.49862012 -11 18 C-13.64 17.34 -16.28 16.68 -19 16 C-18.34 13.36 -17.68 10.72 -17 8 C-16.40832031 8.144375 -15.81664062 8.28875 -15.20703125 8.4375 C-14.41683594 8.623125 -13.62664063 8.80875 -12.8125 9 C-12.03519531 9.185625 -11.25789063 9.37125 -10.45703125 9.5625 C-7.59551757 10.14608589 -7.59551757 10.14608589 -3 10 C-2.01 6.7 -1.02 3.4 0 0 Z " fill="#FEFBF8" transform="translate(61,22)"/>
<path d="M0 0 C8.58 0 17.16 0 26 0 C23.09433411 12.43733624 20.18583783 24.87399878 17.27093506 37.30917358 C16.04973383 42.51891858 14.8292901 47.72883565 13.61181641 52.93945312 C12.56426781 57.42229434 11.51327629 61.90431351 10.45944214 66.38568115 C10.06992242 68.04476544 9.68167686 69.7041494 9.29470825 71.36383057 C8.75971179 73.65741695 8.22028617 75.94991617 7.6796875 78.2421875 C7.52289017 78.9190863 7.36609283 79.59598511 7.20454407 80.293396 C6.11413331 84.88586669 6.11413331 84.88586669 5 86 C3.14630389 86.08737645 1.28932459 86.10698153 -0.56640625 86.09765625 C-1.69111328 86.09443359 -2.81582031 86.09121094 -3.97460938 86.08789062 C-5.15861328 86.07951172 -6.34261719 86.07113281 -7.5625 86.0625 C-8.75037109 86.05798828 -9.93824219 86.05347656 -11.16210938 86.04882812 C-14.10812226 86.03699675 -17.05403681 86.02051287 -20 86 C-16.56835246 68.77158255 -12.41341408 51.71371458 -8.30834961 34.63671875 C-7.36771128 30.72116259 -6.43009245 26.80488349 -5.4921875 22.88867188 C-3.66434263 15.25842026 -1.83297752 7.62902059 0 0 Z " fill="#4D4D4D" transform="translate(505,40)"/>
<path d="M0 0 C8.25 0 16.5 0 25 0 C24.32242469 5.42060247 23.53560462 10.48283404 22.25 15.74536133 C21.98884399 16.83716202 21.98884399 16.83716202 21.72241211 17.95101929 C21.15246344 20.32905231 20.57634463 22.70554104 20 25.08203125 C19.59991766 26.74484656 19.20018362 28.40774572 18.80078125 30.07072449 C17.96618458 33.54185224 17.12877012 37.01228289 16.2890625 40.48217773 C15.21246778 44.93109512 14.14084378 49.3811902 13.07104492 53.8317461 C12.04909472 58.0822587 11.02461931 62.33216143 10 66.58203125 C9.80486816 67.39238138 9.60973633 68.20273151 9.40869141 69.03763771 C8.85719318 71.32596971 8.30389234 73.61385781 7.75 75.90161133 C7.50527954 76.91853813 7.50527954 76.91853813 7.25561523 77.95600891 C6.59391523 80.68186781 5.88766949 83.33699152 5 86 C-3.25 86 -11.5 86 -20 86 C-17.74982105 72.49892629 -17.74982105 72.49892629 -16.22827148 66.16772461 C-16.06377502 65.47828766 -15.89927856 64.78885071 -15.72979736 64.07852173 C-15.19753591 61.85215439 -14.65945473 59.62724322 -14.12109375 57.40234375 C-13.74487935 55.83492176 -13.3689953 54.26742044 -12.99342346 52.69984436 C-12.21175757 49.44096734 -11.42742221 46.18274969 -10.64086914 42.92504883 C-9.63280287 38.74974039 -8.62958011 34.57328756 -7.62808132 30.3963995 C-6.66912558 26.39797027 -5.70765671 22.40014661 -4.74609375 18.40234375 C-4.56354979 17.6423451 -4.38100582 16.88234646 -4.19293022 16.09931755 C-3.67746281 13.95511327 -3.16019132 11.81135277 -2.64233398 9.66772461 C-2.34858383 8.44927353 -2.05483368 7.23082245 -1.75218201 5.97544861 C-1 3 -1 3 0 0 Z " fill="#4D4D4D" transform="translate(239,40)"/>
<path d="M0 0 C2.83760062 4.31609156 2.64638266 9.01812387 2 14 C0.25 17.375 0.25 17.375 -2 20 C-2.61875 20.7425 -3.2375 21.485 -3.875 22.25 C-7.81957153 25.49847068 -11.5002952 26.21951747 -16.5 25.875 C-20.81424024 25.24932604 -23.67755349 23.91727011 -27 21 C-29.50240283 17.19199569 -29.16129479 13.5665635 -28.5390625 9.2109375 C-27.19321576 3.69101537 -23.58726581 0.09640442 -19 -3 C-12.45711899 -5.6171524 -5.52429837 -4.11464982 0 0 Z " fill="#4D4D4D" transform="translate(270,5)"/>
<path d="M0 0 C3.125 2.1875 3.125 2.1875 5.125 5.1875 C5.90296966 10.78888153 6.21957727 16.43009407 2.9375 21.25 C-1.22942056 26.02048565 -5.34970943 27.73747579 -11.59375 28.2578125 C-16.00051126 28.12198767 -19.35760848 26.45199294 -22.75 23.625 C-25.54049755 20.05936424 -25.3272862 16.47088568 -25.28125 12.0859375 C-24.61330243 7.32038847 -22.40041325 4.36270664 -18.875 1.1875 C-12.67691461 -2.48543949 -6.43529174 -3.4713192 0 0 Z " fill="#4D4D4D" transform="translate(532.875,2.8125)"/>
<path d="M0 0 C13.82514091 2.75160572 13.82514091 2.75160572 18 8 C18.0625 11.6875 18.0625 11.6875 17 15 C13.44034019 17.37310654 11.78037776 17.26915041 7.5625 17.25 C6.42941406 17.25515625 5.29632813 17.2603125 4.12890625 17.265625 C1.16474309 17.01398568 -0.50313671 16.54596941 -3 15 C-2.44854729 9.76119922 -1.57077907 5.02649303 0 0 Z " fill="#F7951F" transform="translate(58,65)"/>
<path d="M0 0 C11.40221402 1.68265683 11.40221402 1.68265683 15 6 C15.51453024 9.1514977 15.6948256 10.99426938 13.84765625 13.66796875 C11.19221794 15.58235451 9.17202214 15.32860321 5.9375 15.25 C4.87402344 15.23453125 3.81054688 15.2190625 2.71484375 15.203125 C0 15 0 15 -2 14 C-1.85795259 12.41632253 -1.71119847 10.83306682 -1.5625 9.25 C-1.48128906 8.36828125 -1.40007813 7.4865625 -1.31640625 6.578125 C-1.03761535 4.30649548 -0.61209423 2.20148177 0 0 Z " fill="#F79621" transform="translate(63,44)"/>
</svg>
