<?xml version="1.0" encoding="UTF-8"?>
<svg xmlns="http://www.w3.org/2000/svg" xmlns:xlink="http://www.w3.org/1999/xlink" width="1200px" height="251px" viewBox="0 0 1200 251" version="1.1">
<g id="surface1">
<path style=" stroke:none;fill-rule:nonzero;fill:rgb(96.862745%,57.647061%,10.196079%);fill-opacity:1;" d="M 174.511719 7.84375 C 176.628906 8.796875 178.75 9.75 180.9375 10.730469 C 212.050781 26.089844 233.257812 50.988281 245.582031 83.195312 C 255.957031 118.632812 253.511719 154.554688 237.011719 187.757812 C 219.117188 218.816406 191.476562 238.78125 157.492188 249.316406 C 124.40625 257.03125 88.128906 252.164062 59.070312 234.820312 C 28.539062 213.597656 7.636719 185.734375 0 149.03125 C -0.847656 141.371094 -1.03125 133.816406 -0.980469 126.113281 C -0.96875 124.066406 -0.957031 122.015625 -0.945312 119.90625 C -0.167969 85.84375 12.808594 58.992188 36.144531 34.15625 C 71.71875 0.636719 128.855469 -13.089844 174.511719 7.84375 Z M 174.511719 7.84375 "/>
<path style=" stroke:none;fill-rule:nonzero;fill:rgb(30.19608%,30.19608%,30.19608%);fill-opacity:1;" d="M 360.785156 0 C 359.628906 10.554688 357.851562 20.660156 355.199219 30.945312 C 354.855469 32.316406 354.511719 33.6875 354.152344 35.097656 C 353.0625 39.417969 351.960938 43.730469 350.859375 48.042969 C 350.109375 50.996094 349.363281 53.945312 348.617188 56.898438 C 346.800781 64.082031 344.972656 71.257812 343.136719 78.4375 C 345.546875 77.804688 347.960938 77.167969 350.445312 76.515625 C 367.921875 72.164062 384.582031 73.945312 400.460938 82.855469 C 415.914062 93.519531 422.519531 107.042969 426.457031 125.125 C 432.074219 160.429688 421.347656 189.4375 401.46875 218.15625 C 375.277344 244.347656 347.863281 251.503906 312.199219 251.636719 C 292.722656 251.457031 271.585938 250.359375 254.902344 239.234375 C 260.617188 213.144531 266.648438 187.136719 272.808594 161.148438 C 273.757812 157.148438 274.703125 153.148438 275.648438 149.148438 C 277.613281 140.839844 279.582031 132.527344 281.550781 124.222656 C 284.066406 113.601562 286.582031 102.984375 289.09375 92.363281 C 291.039062 84.132812 292.988281 75.902344 294.9375 67.675781 C 295.863281 63.757812 296.792969 59.839844 297.71875 55.921875 C 299.011719 50.460938 300.308594 44.996094 301.601562 39.53125 C 301.980469 37.9375 302.355469 36.34375 302.742188 34.703125 C 305.027344 25.078125 307.386719 15.476562 309.804688 5.882812 C 315.726562 4.890625 321.648438 3.910156 327.574219 2.941406 C 330.066406 2.519531 330.066406 2.519531 332.609375 2.089844 C 342.144531 0.546875 351.128906 -0.316406 360.785156 0 Z M 331.371094 123.539062 C 329.621094 129.394531 328.101562 135.171875 326.699219 141.109375 C 326.269531 142.878906 325.839844 144.648438 325.398438 146.46875 C 324.492188 150.214844 323.589844 153.964844 322.699219 157.714844 C 321.332031 163.460938 319.941406 169.199219 318.542969 174.9375 C 317.667969 178.574219 316.789062 182.207031 315.917969 185.84375 C 315.5 187.566406 315.082031 189.289062 314.652344 191.0625 C 314.082031 193.46875 314.082031 193.46875 313.503906 195.921875 C 313.164062 197.328125 312.828125 198.738281 312.484375 200.191406 C 311.582031 204.265625 311.582031 204.265625 311.765625 209.820312 C 326.980469 212.476562 338.113281 211.8125 351.242188 203.132812 C 365.574219 191.605469 376.230469 175.355469 378.429688 156.875 C 379.695312 142.3125 378.105469 132.3125 370.21875 119.863281 C 356.871094 111.578125 344.085938 117.179688 331.371094 123.539062 Z M 331.371094 123.539062 "/>
<path style=" stroke:none;fill-rule:nonzero;fill:rgb(30.19608%,30.19608%,30.19608%);fill-opacity:1;" d="M 928.0625 86.527344 C 946.003906 105.722656 950.230469 126.433594 949.632812 151.925781 C 948.070312 182.230469 936.324219 210.738281 913.726562 231.390625 C 894.886719 245.71875 877.488281 252.046875 853.921875 251.859375 C 852.183594 251.898438 850.449219 251.9375 848.660156 251.976562 C 830.617188 251.964844 816.710938 245.675781 803.515625 233.480469 C 785.527344 212.75 786.460938 186.648438 788.234375 160.796875 C 791.800781 134.976562 804.910156 109.734375 825.328125 93.496094 C 855.691406 70.855469 895.019531 65.324219 928.0625 86.527344 Z M 850.488281 130.523438 C 838.710938 147.792969 833.257812 168.097656 836.640625 188.742188 C 838.476562 196.761719 841.039062 202.027344 847.058594 207.859375 C 853.523438 211.09375 859.707031 211.042969 866.667969 209.820312 C 881.796875 203.007812 890.152344 192.644531 896.007812 177.464844 C 901.160156 161.128906 903.914062 142.140625 896.570312 126.113281 C 893.457031 120.34375 890.382812 118.136719 884.3125 115.695312 C 870.390625 113.796875 859.144531 119.882812 850.488281 130.523438 Z M 850.488281 130.523438 "/>
<path style=" stroke:none;fill-rule:nonzero;fill:rgb(30.19608%,30.19608%,30.19608%);fill-opacity:1;" d="M 1186.273438 88.242188 C 1199.234375 101.792969 1200.945312 114.707031 1200.992188 132.773438 C 1200.457031 155.90625 1193.96875 178.101562 1188.234375 200.382812 C 1187.097656 204.9375 1185.964844 209.488281 1184.835938 214.042969 C 1182.097656 225.070312 1179.285156 236.070312 1176.46875 247.078125 C 1160.292969 247.078125 1144.117188 247.078125 1127.449219 247.078125 C 1129.65625 227.234375 1129.65625 227.234375 1131.433594 219.964844 C 1132.023438 217.519531 1132.023438 217.519531 1132.625 215.027344 C 1133.042969 213.328125 1133.460938 211.632812 1133.890625 209.882812 C 1134.78125 206.175781 1135.667969 202.472656 1136.554688 198.765625 C 1137.945312 193.007812 1139.34375 187.25 1140.75 181.496094 C 1142.117188 175.886719 1143.460938 170.273438 1144.800781 164.65625 C 1145.222656 162.960938 1145.644531 161.261719 1146.082031 159.511719 C 1150.523438 140.800781 1150.523438 140.800781 1146.675781 122.527344 C 1142.171875 118.824219 1139.367188 118.464844 1133.578125 118.148438 C 1131.925781 118.035156 1130.273438 117.925781 1128.570312 117.808594 C 1123.617188 117.660156 1118.679688 117.644531 1113.726562 117.65625 C 1113.289062 119.796875 1112.851562 121.9375 1112.402344 124.144531 C 1107.429688 148.253906 1101.925781 172.21875 1096.183594 196.15625 C 1094.703125 202.335938 1093.238281 208.515625 1091.769531 214.699219 C 1090.828125 218.632812 1089.890625 222.570312 1088.949219 226.503906 C 1088.511719 228.351562 1088.074219 230.195312 1087.625 232.097656 C 1087.011719 234.625 1087.011719 234.625 1086.390625 237.207031 C 1086.035156 238.691406 1085.679688 240.175781 1085.316406 241.707031 C 1084.3125 245.117188 1084.3125 245.117188 1082.351562 247.078125 C 1078.71875 247.25 1075.078125 247.289062 1071.4375 247.269531 C 1069.234375 247.261719 1067.027344 247.257812 1064.753906 247.25 C 1062.433594 247.234375 1060.113281 247.21875 1057.71875 247.199219 C 1055.390625 247.191406 1053.0625 247.183594 1050.664062 247.175781 C 1044.886719 247.152344 1039.109375 247.117188 1033.332031 247.078125 C 1039.265625 217.761719 1045.90625 188.613281 1052.816406 159.511719 C 1054.472656 152.542969 1056.109375 145.566406 1057.714844 138.582031 C 1059.289062 131.714844 1060.902344 124.859375 1062.546875 118.007812 C 1063.457031 114.175781 1064.324219 110.332031 1065.195312 106.488281 C 1065.757812 104.175781 1066.320312 101.863281 1066.898438 99.480469 C 1067.375 97.445312 1067.855469 95.410156 1068.34375 93.316406 C 1071.1875 86.882812 1074.113281 85.300781 1080.390625 82.359375 C 1085.945312 80.566406 1085.945312 80.566406 1091.789062 79.171875 C 1093.703125 78.703125 1095.617188 78.234375 1097.585938 77.75 C 1126.292969 71.984375 1162.222656 68.664062 1186.273438 88.242188 Z M 1186.273438 88.242188 "/>
<path style=" stroke:none;fill-rule:nonzero;fill:rgb(30.19608%,30.19608%,30.19608%);fill-opacity:1;" d="M 607.84375 29.414062 C 606.65625 40.503906 604.660156 50.992188 601.839844 61.769531 C 599.957031 69.050781 599.957031 69.050781 598.039062 76.476562 C 623.273438 77.445312 623.273438 77.445312 649.019531 78.4375 C 645.097656 100.007812 645.097656 100.007812 639.214844 119.617188 C 621.746094 119.617188 604.273438 119.617188 586.273438 119.617188 C 584.980469 127.382812 583.6875 135.148438 582.351562 143.148438 C 580.285156 152.007812 578.117188 160.824219 575.84375 169.632812 C 573.441406 179.289062 571.6875 188.015625 572.550781 198.054688 C 575.808594 204.257812 575.808594 204.257812 582.351562 207.859375 C 596.242188 210.003906 610.027344 207.21875 623.53125 203.9375 C 624.90625 217.074219 625.707031 229.945312 625.488281 243.15625 C 622.757812 244.101562 620.019531 245.042969 617.28125 245.976562 C 615.753906 246.5 614.230469 247.023438 612.660156 247.5625 C 601.34375 251.035156 590.6875 251.421875 578.921875 251.492188 C 577.242188 251.53125 575.566406 251.570312 573.835938 251.613281 C 559.769531 251.699219 547.695312 249.171875 535.660156 241.6875 C 522.289062 227.929688 521.066406 213.953125 521.226562 195.527344 C 521.722656 184.929688 523.6875 175.027344 526.101562 164.71875 C 526.601562 162.492188 527.101562 160.265625 527.613281 157.972656 C 529.476562 149.75 531.398438 141.546875 533.332031 133.34375 C 533.753906 131.550781 534.175781 129.757812 534.609375 127.910156 C 539.816406 105.765625 545.078125 83.632812 550.40625 61.515625 C 550.832031 59.75 551.253906 57.980469 551.691406 56.15625 C 552.085938 54.527344 552.480469 52.898438 552.886719 51.21875 C 553.230469 49.792969 553.574219 48.371094 553.925781 46.902344 C 554.769531 43.648438 555.800781 40.445312 556.863281 37.257812 C 562.808594 35.601562 568.449219 34.378906 574.511719 33.335938 C 576.507812 32.96875 578.507812 32.601562 580.566406 32.226562 C 589.773438 30.597656 598.472656 29.175781 607.84375 29.414062 Z M 607.84375 29.414062 "/>
<path style=" stroke:none;fill-rule:nonzero;fill:rgb(30.19608%,30.19608%,30.19608%);fill-opacity:1;" d="M 745.464844 73.78125 C 747.261719 73.777344 749.0625 73.773438 750.914062 73.773438 C 765.796875 74.003906 778.335938 76.613281 792.15625 82.359375 C 791.027344 92.5625 787.660156 100.476562 783.210938 109.566406 C 782.566406 110.917969 781.917969 112.265625 781.253906 113.65625 C 779.671875 116.957031 778.074219 120.25 776.46875 123.539062 C 775.117188 123.113281 773.765625 122.691406 772.371094 122.253906 C 754.40625 116.929688 738.640625 114.304688 721.570312 123.539062 C 709.621094 131.367188 703.199219 141.070312 698.851562 154.554688 C 695.984375 169.679688 695.644531 186.710938 703.921875 200.015625 C 712.785156 208.324219 721.609375 208.265625 733.1875 208.1875 C 742.566406 207.675781 751.621094 205.921875 760.785156 203.9375 C 762.976562 208.324219 763.125 211.09375 763.367188 215.964844 C 763.449219 217.542969 763.53125 219.125 763.613281 220.75 C 763.691406 222.402344 763.769531 224.050781 763.847656 225.753906 C 763.976562 228.25 763.976562 228.25 764.105469 230.800781 C 764.3125 234.917969 764.511719 239.039062 764.707031 243.15625 C 762.257812 244.101562 759.804688 245.039062 757.351562 245.976562 C 755.988281 246.5 754.625 247.023438 753.21875 247.5625 C 741.925781 251.539062 731.253906 251.5 719.363281 251.613281 C 716.4375 251.699219 716.4375 251.699219 713.449219 251.785156 C 694.773438 251.945312 679.019531 246.730469 664.355469 234.976562 C 650.265625 220.828125 644.710938 202.917969 644.453125 183.359375 C 644.695312 151.847656 651.625 125.003906 673.773438 101.234375 C 694.421875 81.90625 717.695312 73.738281 745.464844 73.78125 Z M 745.464844 73.78125 "/>
<path style=" stroke:none;fill-rule:nonzero;fill:rgb(99.607843%,98.431373%,97.254902%);fill-opacity:1;" d="M 119.609375 43.140625 C 124.136719 44.433594 128.667969 45.730469 133.332031 47.0625 C 132.039062 54.828125 130.746094 62.59375 129.410156 70.59375 C 132.648438 69.945312 135.882812 69.300781 139.214844 68.632812 C 140.511719 62.808594 141.804688 56.984375 143.136719 50.984375 C 148.3125 51.632812 153.488281 52.277344 158.824219 52.945312 C 158.175781 60.710938 157.53125 68.476562 156.863281 76.476562 C 159.289062 77.570312 161.714844 78.660156 164.214844 79.785156 C 171.601562 83.558594 176.382812 86.609375 180.390625 94.125 C 182.191406 105.285156 180.6875 113.929688 174.511719 123.539062 C 171.199219 127.214844 171.199219 127.214844 168.628906 129.421875 C 170.246094 131.039062 171.863281 132.65625 173.53125 134.324219 C 178.390625 140.222656 179.800781 144.949219 179.257812 152.785156 C 177.230469 162.816406 172.941406 170.324219 165.5625 177.34375 C 157.183594 182.714844 150.574219 182.578125 140.808594 182.488281 C 138.3125 182.472656 135.820312 182.453125 133.25 182.4375 C 131.335938 182.414062 129.421875 182.390625 127.449219 182.367188 C 125.511719 188.839844 123.570312 195.308594 121.570312 201.976562 C 114.773438 201.007812 114.773438 201.007812 107.84375 200.015625 C 109.804688 183.207031 109.804688 183.207031 111.765625 176.484375 C 108.53125 175.835938 105.292969 175.191406 101.960938 174.523438 C 101.675781 176.992188 101.394531 179.457031 101.101562 182 C 100.515625 187.125 99.691406 191.140625 98.039062 196.09375 C 92.863281 195.445312 87.6875 194.800781 82.351562 194.132812 C 83.648438 187.015625 84.941406 179.894531 86.273438 172.5625 C 83.523438 171.632812 80.773438 170.703125 77.941406 169.742188 C 76.394531 169.21875 74.847656 168.695312 73.253906 168.15625 C 69.148438 166.84375 64.96875 165.765625 60.785156 164.71875 C 62.726562 158.894531 64.667969 153.070312 66.667969 147.070312 C 71.84375 147.070312 77.019531 147.070312 82.351562 147.070312 C 84.28125 139.503906 86.199219 131.9375 88.109375 124.367188 C 89.078125 120.539062 90.050781 116.714844 91.027344 112.886719 C 91.945312 109.238281 91.945312 109.238281 92.882812 105.515625 C 93.730469 102.171875 93.730469 102.171875 94.597656 98.761719 C 96.113281 92.011719 97.152344 85.296875 98.039062 78.4375 C 92.863281 77.144531 87.6875 75.847656 82.351562 74.515625 C 83.648438 69.339844 84.941406 64.160156 86.273438 58.828125 C 87.433594 59.109375 88.59375 59.394531 89.789062 59.6875 C 91.339844 60.050781 92.890625 60.414062 94.484375 60.789062 C 96.007812 61.152344 97.535156 61.515625 99.105469 61.890625 C 104.714844 63.035156 104.714844 63.035156 113.726562 62.75 C 115.667969 56.277344 117.609375 49.808594 119.609375 43.140625 Z M 119.609375 43.140625 "/>
<path style=" stroke:none;fill-rule:nonzero;fill:rgb(30.19608%,30.19608%,30.19608%);fill-opacity:1;" d="M 990.195312 78.4375 C 1007.019531 78.4375 1023.84375 78.4375 1041.175781 78.4375 C 1035.480469 102.828125 1029.777344 127.214844 1024.0625 151.597656 C 1021.667969 161.8125 1019.273438 172.03125 1016.886719 182.25 C 1014.832031 191.039062 1012.769531 199.828125 1010.703125 208.617188 C 1009.941406 211.867188 1009.179688 215.121094 1008.421875 218.378906 C 1007.371094 222.875 1006.3125 227.371094 1005.253906 231.867188 C 1004.945312 233.191406 1004.640625 234.519531 1004.324219 235.886719 C 1002.183594 244.894531 1002.183594 244.894531 1000 247.078125 C 996.367188 247.25 992.722656 247.289062 989.085938 247.269531 C 986.878906 247.261719 984.675781 247.257812 982.402344 247.25 C 980.082031 247.234375 977.757812 247.21875 975.367188 247.199219 C 973.039062 247.191406 970.710938 247.183594 968.308594 247.175781 C 962.53125 247.152344 956.757812 247.117188 950.980469 247.078125 C 957.710938 213.292969 965.855469 179.84375 973.90625 146.359375 C 975.75 138.679688 977.589844 131 979.425781 123.320312 C 983.011719 108.359375 986.601562 93.398438 990.195312 78.4375 Z M 990.195312 78.4375 "/>
<path style=" stroke:none;fill-rule:nonzero;fill:rgb(30.19608%,30.19608%,30.19608%);fill-opacity:1;" d="M 468.628906 78.4375 C 484.804688 78.4375 500.980469 78.4375 517.648438 78.4375 C 516.320312 89.066406 514.777344 98.992188 512.253906 109.3125 C 511.742188 111.453125 511.742188 111.453125 511.21875 113.636719 C 510.101562 118.300781 508.972656 122.960938 507.84375 127.621094 C 507.058594 130.882812 506.273438 134.144531 505.492188 137.40625 C 503.855469 144.210938 502.214844 151.015625 500.566406 157.820312 C 498.457031 166.542969 496.355469 175.269531 494.257812 184 C 492.253906 192.332031 490.246094 200.667969 488.234375 209 C 487.851562 210.589844 487.46875 212.179688 487.074219 213.816406 C 485.996094 218.304688 484.910156 222.789062 483.824219 227.277344 C 483.34375 229.269531 483.34375 229.269531 482.855469 231.304688 C 481.558594 236.648438 480.171875 241.855469 478.429688 247.078125 C 462.253906 247.078125 446.078125 247.078125 429.410156 247.078125 C 433.824219 220.601562 433.824219 220.601562 436.808594 208.1875 C 437.128906 206.835938 437.453125 205.484375 437.785156 204.089844 C 438.828125 199.726562 439.882812 195.363281 440.9375 191 C 441.675781 187.925781 442.414062 184.851562 443.148438 181.777344 C 444.683594 175.386719 446.222656 169 447.761719 162.609375 C 449.738281 154.421875 451.707031 146.234375 453.671875 138.042969 C 455.550781 130.203125 457.4375 122.363281 459.320312 114.523438 C 459.679688 113.03125 460.039062 111.542969 460.40625 110.007812 C 461.417969 105.800781 462.429688 101.597656 463.445312 97.394531 C 464.023438 95.007812 464.597656 92.617188 465.191406 90.15625 C 466.667969 84.320312 466.667969 84.320312 468.628906 78.4375 Z M 468.628906 78.4375 "/>
<path style=" stroke:none;fill-rule:nonzero;fill:rgb(30.19608%,30.19608%,30.19608%);fill-opacity:1;" d="M 529.410156 9.804688 C 534.976562 18.269531 534.601562 27.488281 533.332031 37.257812 C 529.902344 43.875 529.902344 43.875 525.488281 49.023438 C 524.277344 50.480469 523.0625 51.933594 521.8125 53.4375 C 514.078125 59.804688 506.863281 61.21875 497.058594 60.542969 C 488.597656 59.316406 482.984375 56.703125 476.46875 50.984375 C 471.5625 43.515625 472.234375 36.40625 473.453125 27.867188 C 476.089844 17.042969 483.164062 9.992188 492.15625 3.921875 C 504.984375 -1.210938 518.578125 1.734375 529.410156 9.804688 Z M 529.410156 9.804688 "/>
<path style=" stroke:none;fill-rule:nonzero;fill:rgb(30.19608%,30.19608%,30.19608%);fill-opacity:1;" d="M 1044.851562 5.515625 C 1050.980469 9.804688 1050.980469 9.804688 1054.902344 15.6875 C 1056.425781 26.671875 1057.046875 37.734375 1050.613281 47.183594 C 1042.441406 56.539062 1034.363281 59.90625 1022.121094 60.925781 C 1013.480469 60.660156 1006.898438 57.386719 1000.246094 51.84375 C 994.773438 44.851562 995.191406 37.8125 995.28125 29.214844 C 996.589844 19.871094 1000.929688 14.070312 1007.84375 7.84375 C 1019.996094 0.640625 1032.234375 -1.292969 1044.851562 5.515625 Z M 1044.851562 5.515625 "/>
<path style=" stroke:none;fill-rule:nonzero;fill:rgb(96.862745%,58.431375%,12.156863%);fill-opacity:1;" d="M 113.726562 127.460938 C 140.832031 132.855469 140.832031 132.855469 149.019531 143.148438 C 149.140625 150.378906 149.140625 150.378906 147.058594 156.875 C 140.078125 161.527344 136.824219 161.324219 128.554688 161.289062 C 126.332031 161.296875 124.109375 161.308594 121.820312 161.316406 C 116.007812 160.824219 112.738281 159.90625 107.84375 156.875 C 108.925781 146.601562 110.644531 137.316406 113.726562 127.460938 Z M 113.726562 127.460938 "/>
<path style=" stroke:none;fill-rule:nonzero;fill:rgb(96.862745%,58.823532%,12.941177%);fill-opacity:1;" d="M 123.53125 86.28125 C 145.886719 89.582031 145.886719 89.582031 152.941406 98.046875 C 153.949219 104.226562 154.304688 107.839844 150.683594 113.082031 C 145.476562 116.835938 141.515625 116.339844 135.171875 116.1875 C 133.085938 116.15625 131 116.125 128.851562 116.09375 C 123.53125 115.695312 123.53125 115.695312 119.609375 113.734375 C 119.886719 110.628906 120.175781 107.523438 120.464844 104.421875 C 120.625 102.691406 120.785156 100.960938 120.949219 99.179688 C 121.496094 94.726562 122.328125 90.597656 123.53125 86.28125 Z M 123.53125 86.28125 "/>
</g>
</svg>
