<?xml version="1.0" encoding="UTF-8"?>
<svg version="1.1" xmlns="http://www.w3.org/2000/svg" width="960" height="960">
<path d="M0 0 C0.66 0 1.32 0 2 0 C3.38523423 2.03743901 4.63269106 4.06003992 5.859375 6.19140625 C6.24008148 6.83897385 6.62078796 7.48654144 7.01303101 8.1537323 C7.83499687 9.5536114 8.65362071 10.95545694 9.46929932 12.35900879 C11.1911299 15.32147973 12.9288701 18.27449595 14.66592407 21.22805786 C15.54155506 22.71722384 16.41636874 24.2068707 17.29037476 25.69699097 C20.84303199 31.7509531 24.46147543 37.7624321 28.125 43.75 C28.95463257 45.10859131 28.95463257 45.10859131 29.80102539 46.49462891 C30.93701758 48.35429868 32.07349729 50.21367073 33.21044922 52.07275391 C36.54279478 57.52361656 39.86785811 62.97889403 43.1875 68.4375 C43.53907166 69.01545319 43.89064331 69.59340637 44.25286865 70.18887329 C50.5717986 80.58350405 56.78259782 91.04055163 62.97616577 101.51022339 C67.73876757 109.55744399 72.54241147 117.57072954 77.5 125.5 C82.88324357 134.11007201 88.08015391 142.82342076 93.25 151.5625 C99.32177955 161.82453505 105.42719428 172.06351279 111.625 182.25 C112.1460733 183.10665756 112.1460733 183.10665756 112.67767334 183.98062134 C115.11612963 187.98849531 117.55765918 191.99449236 120 196 C122.79385613 200.58200262 125.58612202 205.16496536 128.375 209.75 C128.72225128 210.32075256 129.06950256 210.89150513 129.42727661 211.47955322 C135.62064209 221.66566322 141.70592403 231.91407847 147.77484131 242.17468262 C153.09849878 251.17080106 158.49468381 260.11349866 164 269 C169.92350056 278.56152087 175.71159322 288.19431725 181.4375 297.875 C187.44661324 308.03299614 193.49050186 318.1671559 199.625 328.25 C200.14648117 329.10733734 200.14648117 329.10733734 200.67849731 329.98199463 C203.1166783 333.98941122 205.55793709 337.99494816 208 342 C210.79385613 346.58200262 213.58612202 351.16496536 216.375 355.75 C216.72225128 356.32075256 217.06950256 356.89150513 217.42727661 357.47955322 C223.2082323 366.9873807 228.89680629 376.54814445 234.5625 386.125 C240.45987132 396.0932343 246.41906901 406.01758306 252.5 415.875 C253.47356445 417.45619629 253.47356445 417.45619629 254.46679688 419.06933594 C257.43954263 423.88823304 260.43299177 428.6917608 263.47265625 433.46875 C263.99859375 434.30422363 264.52453125 435.13969727 265.06640625 436.00048828 C266.03110804 437.53160603 267.00567987 439.05657068 267.9921875 440.57373047 C271.02167132 445.40519441 271.02167132 445.40519441 270.92675781 448.01025391 C269.57094269 450.92118468 267.70567919 451.70249792 264.91796875 453.25 C263.85094727 453.85215332 262.78392578 454.45430664 261.68457031 455.07470703 C260.53053711 455.71005371 259.37650391 456.34540039 258.1875 457 C256.39125036 458.00822984 254.59771075 459.02117339 252.8041687 460.03421021 C251.59597225 460.71611615 250.38692102 461.39650977 249.17703247 462.07540894 C243.97536077 464.99646835 238.85148718 468.033237 233.75 471.125 C232.13825579 472.09804553 230.52627579 473.07070062 228.9140625 474.04296875 C227.71378418 474.76685791 227.71378418 474.76685791 226.48925781 475.50537109 C219.27997482 479.834052 212.02564496 484.08768011 204.78222656 488.35888672 C200.1864592 491.06972809 195.59335616 493.78507573 191 496.5 C189.16667963 497.58335527 187.33334629 498.6666886 185.5 499.75 C184.5925 500.28625 183.685 500.8225 182.75 501.375 C108.49999997 545.25000002 108.49999997 545.25000002 105.7512207 546.87426758 C103.9138054 547.96002039 102.07640311 549.04579521 100.23901367 550.1315918 C95.71823958 552.80308561 91.19725666 555.47422455 86.67578125 558.14453125 C77.1901603 563.74714947 67.70831974 569.3560756 58.23153687 574.97363281 C54.23922535 577.34007249 50.24655785 579.70591151 46.25390625 582.07177734 C44.1574465 583.31411221 42.06108472 584.55661242 39.96484375 585.79931641 C35.37888471 588.51740754 30.79048434 591.23110364 26.1953125 593.93359375 C22.63450077 596.0283074 19.09085086 598.14912072 15.5546875 600.28515625 C13.82827585 601.315357 12.10171961 602.34531549 10.375 603.375 C9.58673828 603.85815674 8.79847656 604.34131348 7.98632812 604.83911133 C7.25607422 605.27118896 6.52582031 605.7032666 5.7734375 606.1484375 C5.13841309 606.53177246 4.50338867 606.91510742 3.84912109 607.31005859 C1.439345 608.20919079 0.39179842 607.8970316 -2 607 C-3.51001576 606.24473417 -4.99443768 605.43719182 -6.45703125 604.59375 C-7.31417725 604.10205322 -8.17132324 603.61035645 -9.05444336 603.10375977 C-10.4196814 602.30989868 -10.4196814 602.30989868 -11.8125 601.5 C-12.75810791 600.954646 -13.70371582 600.40929199 -14.67797852 599.84741211 C-21.16620053 596.09478264 -27.60984253 592.27291835 -34.0234375 588.39453125 C-38.84994142 585.47950174 -43.70672736 582.61591686 -48.5625 579.75 C-49.49698975 579.19836182 -50.43147949 578.64672363 -51.39428711 578.07836914 C-53.30851363 576.94859471 -55.22282093 575.81895713 -57.13720703 574.68945312 C-61.7593711 571.96172198 -66.37961088 569.23073618 -71 566.5 C-72.83332361 565.41665021 -74.66665695 564.33331689 -76.5 563.25 C-87.5 556.75 -98.5 550.25 -109.5 543.75 C-110.40709717 543.2139917 -111.31419434 542.6779834 -112.2487793 542.12573242 C-114.0861946 541.03997961 -115.92359689 539.95420479 -117.76098633 538.8684082 C-122.28176042 536.19691439 -126.80274334 533.52577545 -131.32421875 530.85546875 C-141.96554957 524.57023827 -152.60101139 518.27518174 -163.23236084 511.9730835 C-173.59295994 505.83166666 -183.96004974 499.70131144 -194.33056641 493.57666016 C-198.88748494 490.88518587 -203.44370119 488.19252321 -208 485.5 C-209.83333009 484.41666119 -211.66666342 483.33332785 -213.5 482.25 C-217.16666667 480.08333333 -220.83333333 477.91666667 -224.5 475.75 C-225.40878906 475.2130249 -226.31757813 474.6760498 -227.25390625 474.12280273 C-229.07434856 473.04701326 -230.89466256 471.97100662 -232.71484375 470.89477539 C-237.49434229 468.0691626 -242.27647393 465.24813817 -247.0625 462.43359375 C-248.05636719 461.84835937 -249.05023438 461.263125 -250.07421875 460.66015625 C-251.97183209 459.54286989 -253.87022344 458.42690345 -255.76953125 457.3125 C-260.27076276 454.6603501 -264.69115948 451.95524095 -269 449 C-268.32266994 445.28132515 -266.69104972 442.48987552 -264.78125 439.25 C-264.28675606 438.40718727 -264.28675606 438.40718727 -263.78227234 437.54734802 C-262.69334687 435.69513296 -261.59690936 433.84749637 -260.5 432 C-259.73325863 430.70073272 -258.96674183 429.40133289 -258.20043945 428.10180664 C-251.53557524 416.82095007 -244.74018904 405.61974324 -237.91796875 394.43359375 C-234.58668096 388.97066643 -231.28374493 383.49160449 -228 378 C-223.70426328 370.81801897 -219.36506187 363.66337413 -215.01257324 356.51565552 C-214.65779907 355.9329892 -214.3030249 355.35032288 -213.9375 354.75 C-213.5825647 354.16709198 -213.22762939 353.58418396 -212.86193848 352.98361206 C-206.50250949 342.5330364 -200.25276943 332.01966048 -194.02438354 321.49060059 C-188.77508887 312.62108001 -183.4465148 303.81213806 -177.98242188 295.07275391 C-173.12027955 287.26381256 -168.43341532 279.35431935 -163.75 271.4375 C-157.67822045 261.17546495 -151.57280572 250.93648721 -145.375 240.75 C-145.0276178 240.17889496 -144.6802356 239.60778992 -144.32232666 239.01937866 C-141.53717324 234.44166942 -138.74784212 229.86651023 -135.95825195 225.29150391 C-133.51182882 221.27888859 -131.06714645 217.26521976 -128.625 213.25 C-128.27741638 212.67858276 -127.92983276 212.10716553 -127.57171631 211.51843262 C-121.81637066 202.0504219 -116.14509936 192.53407262 -110.5 183 C-104.51061507 172.88445956 -98.48435319 162.79359679 -92.375 152.75 C-92.02725525 152.1782605 -91.6795105 151.606521 -91.32122803 151.01745605 C-88.5364429 146.44038652 -85.74745795 141.86588018 -82.95825195 137.29150391 C-80.51182879 133.27888853 -78.06724706 129.26515859 -75.625 125.25 C-75.27774872 124.67924744 -74.93049744 124.10849487 -74.57272339 123.52044678 C-68.37935791 113.33433678 -62.29407597 103.08592153 -56.22515869 92.82531738 C-50.27758301 82.77487827 -44.21714921 72.80458255 -38.06494141 62.87768555 C-33.13128609 54.89445833 -28.31880386 46.84498822 -23.54220581 38.76708984 C-17.55819549 28.64736285 -11.57060319 18.53033427 -5.4375 8.5 C-4.90745361 7.62174561 -4.37740723 6.74349121 -3.83129883 5.83862305 C-3.34943115 5.05656494 -2.86756348 4.27450684 -2.37109375 3.46875 C-1.95786865 2.79263672 -1.54464355 2.11652344 -1.11889648 1.41992188 C-0.74966064 0.95134766 -0.3804248 0.48277344 0 0 Z " fill="#61678F" transform="translate(479,40)"/>
<path d="M0 0 C3.87940166 1.4382302 7.32135383 3.2505784 10.8828125 5.3515625 C11.44591629 5.68249908 12.00902008 6.01343567 12.58918762 6.35440063 C14.43646501 7.44123453 16.28074238 8.533051 18.125 9.625 C19.42374803 10.39057347 20.72266006 11.1558688 22.02172852 11.92089844 C26.0174098 14.27566573 30.00895357 16.63738849 34 19 C35.21563449 19.7191145 36.43129132 20.43819125 37.64697266 21.15722656 C43.31139535 24.50819898 48.97308221 27.86376463 54.6328125 31.22265625 C60.52206657 34.71768086 66.416042 38.20464543 72.3125 41.6875 C73.20122803 42.2124707 74.08995605 42.73744141 75.00561523 43.27832031 C76.78057085 44.32670774 78.55555441 45.37504786 80.33056641 46.42333984 C84.88748494 49.11481413 89.44370119 51.80747679 94 54.5 C95.83333009 55.58333881 97.66666342 56.66667215 99.5 57.75 C139.83333333 81.58333333 180.16666667 105.41666667 220.5 129.25 C221.4084668 129.78681396 222.31693359 130.32362793 223.25292969 130.87670898 C225.07652335 131.95430179 226.90009128 133.03193813 228.72363281 134.10961914 C233.4557674 136.90614984 238.18841788 139.70180209 242.921875 142.49609375 C243.89769531 143.07230469 244.87351562 143.64851562 245.87890625 144.2421875 C247.72509213 145.3323163 249.5714335 146.42218184 251.41796875 147.51171875 C252.26488281 148.011875 253.11179687 148.51203125 253.984375 149.02734375 C254.81001953 149.50929199 255.63566406 149.99124023 256.48632812 150.48779297 C258.24433302 151.54539615 259.9759735 152.64751406 261.68554688 153.78173828 C262.99362305 154.63421143 262.99362305 154.63421143 264.328125 155.50390625 C265.10575195 156.02927979 265.88337891 156.55465332 266.68457031 157.09594727 C268.99540389 158.26170565 268.99540389 158.26170565 271.4609375 157.34033203 C274.09924456 155.94761032 276.71363341 154.54385805 279.296875 153.05078125 C280.83855347 152.16156982 280.83855347 152.16156982 282.41137695 151.25439453 C283.51312256 150.61356934 284.61486816 149.97274414 285.75 149.3125 C286.91688267 148.63650742 288.08379398 147.96056427 289.25073242 147.28466797 C298.01286422 142.1993398 306.70770804 137.00516594 315.38305664 131.77319336 C323.44970639 126.91328741 331.55847731 122.12947818 339.6875 117.375 C340.30372223 117.01456604 340.91994446 116.65413208 341.55484009 116.28277588 C342.78777253 115.56167064 344.02070808 114.84057074 345.25364685 114.11947632 C346.15482994 113.59240585 346.15482994 113.59240585 347.07421875 113.0546875 C347.66916641 112.70677155 348.26411407 112.35885559 348.87709045 112.00039673 C354.26132244 108.85032008 359.63242094 105.67834288 365 102.5 C370.96663009 98.96693676 376.93993333 95.44572896 382.92578125 91.9453125 C383.52643402 91.59402283 384.12708679 91.24273315 384.74594116 90.88079834 C385.35313995 90.52568176 385.96033875 90.17056519 386.5859375 89.8046875 C396.92438869 83.75807889 407.24062855 77.68034425 417.5 71.5 C428.36803522 64.95299083 439.30215754 58.52435555 450.25405884 52.11920166 C450.85471161 51.76791199 451.45536438 51.41662231 452.07421875 51.0546875 C452.66915131 50.70678162 453.26408386 50.35887573 453.87704468 50.00042725 C459.2612875 46.85033286 464.63240517 43.67835222 470 40.5 C475.96663029 36.96693664 481.93995454 33.44576544 487.92578125 29.9453125 C488.52752167 29.59334305 489.12926208 29.2413736 489.74923706 28.8787384 C494.79761785 25.92594109 494.79761785 25.92594109 497.15795898 24.5463562 C503.87242264 20.62041723 510.57163901 16.67206205 517.23046875 12.65234375 C517.80654373 12.30486084 518.38261871 11.95737793 518.97615051 11.59936523 C521.70279707 9.95350623 524.42625837 8.30267592 527.14575195 6.64501953 C528.10827881 6.06220215 529.07080566 5.47938477 530.0625 4.87890625 C530.89910156 4.3691626 531.73570312 3.85941895 532.59765625 3.33422852 C535.00817588 1.99545923 537.41994799 0.96550743 540 0 C538.38098208 5.0446229 535.36968223 8.8626461 532.25 13.0625 C531.06636045 14.67739835 529.8841176 16.29332115 528.703125 17.91015625 C528.09146484 18.74691895 527.47980469 19.58368164 526.84960938 20.44580078 C523.84625049 24.59325862 520.92392431 28.79634691 518 33 C513.03632794 40.12378861 507.99610159 47.18541728 502.89453125 54.2109375 C498.2647985 60.6006413 493.74304594 67.06257904 489.23266602 73.53686523 C485.35817799 79.088202 481.42051683 84.5886333 477.4375 90.0625 C472.98968443 96.17580311 468.67654457 102.36528733 464.4375 108.625 C459.92771166 115.28117989 455.24402438 121.75913755 450.37646484 128.15722656 C446.48978229 133.28739141 442.82525013 138.54295748 439.20996094 143.86669922 C435.77166166 148.91631836 432.22158851 153.87462896 428.625 158.8125 C424.09806838 165.03240858 419.69432303 171.32174293 415.375 177.6875 C411.06629601 184.03463392 406.65628941 190.28161545 402.08886719 196.44482422 C398.18113666 201.72435747 394.39279734 207.08245089 390.61865234 212.45800781 C386.98047079 217.63205092 383.28230647 222.75942932 379.5625 227.875 C375.05887862 234.07522799 370.67892801 240.34715397 366.375 246.6875 C362.066153 253.0345408 357.65629367 259.2816097 353.08886719 265.44482422 C349.18113666 270.72435747 345.39279734 276.08245089 341.61865234 281.45800781 C337.98047079 286.63205092 334.28230647 291.75942932 330.5625 296.875 C326.05887862 303.07522799 321.67892801 309.34715397 317.375 315.6875 C313.066153 322.0345408 308.65629367 328.2816097 304.08886719 334.44482422 C300.18802542 339.71505043 296.40639205 345.06369881 292.63842773 350.42944336 C288.27061008 356.64014435 283.83032389 362.79675485 279.36376953 368.93676758 C276.48490575 372.90347397 273.6859785 376.90000878 271 381 C267.53046485 379.84348828 267.09866072 379.09844223 265.1015625 376.16015625 C264.54662109 375.35384766 263.99167969 374.54753906 263.41992188 373.71679688 C262.82759766 372.84087891 262.23527344 371.96496094 261.625 371.0625 C260.3579881 369.21921478 259.08973348 367.37678323 257.8203125 365.53515625 C257.1799707 364.6033252 256.53962891 363.67149414 255.87988281 362.71142578 C253.1440382 358.76541405 250.32723163 354.88079605 247.5 351 C242.32687373 343.87848183 237.26406672 336.68530423 232.23266602 329.46313477 C228.35817632 323.91179559 224.42041054 318.41144576 220.4375 312.9375 C215.97411462 306.80051443 211.6367868 300.59107022 207.375 294.3125 C203.0667321 287.9662776 198.65663202 281.72068231 194.09106445 275.55737305 C188.59625797 268.13117937 183.30852251 260.55984359 178 253 C171.92641769 244.35789813 165.82639116 235.73849819 159.625 227.1875 C153.20423727 218.33027853 146.93570932 209.37019403 140.67578125 200.39892578 C133.53810665 190.18115325 126.31282852 180.03095843 118.99584961 169.94091797 C114.33551967 163.49879892 109.77810256 156.98769232 105.2331543 150.46386719 C101.3585303 144.91226336 97.42058329 139.41168318 93.4375 133.9375 C88.97411462 127.80051443 84.6367868 121.59107022 80.375 115.3125 C76.0667321 108.9662776 71.65663202 102.72068231 67.09106445 96.55737305 C61.59625797 89.13117937 56.30852251 81.55984359 51 74 C44.92641769 65.35789813 38.82639116 56.73849819 32.625 48.1875 C27.40528637 40.98708447 22.27471393 33.72821245 17.19140625 26.4309082 C14.29959523 22.28003588 11.39412372 18.14077138 8.44921875 14.02734375 C7.60919312 12.8508728 7.60919312 12.8508728 6.75219727 11.65063477 C5.69010876 10.16530439 4.62435054 8.68258926 3.55444336 7.20288086 C0 2.22250934 0 2.22250934 0 0 Z " fill="#8A92B2" transform="translate(210,539)"/>
<path d="M0 0 C0.33 0 0.66 0 1 0 C1 107.58 1 215.16 1 326 C-38.16856521 343.90562981 -38.16856521 343.90562981 -49.67895508 348.95751953 C-64.24496575 355.35698878 -78.69204235 361.99663698 -93.11212158 368.71743774 C-105.74964311 374.60457099 -118.44191216 380.34581293 -131.19873047 385.96923828 C-143.36667725 391.3373708 -155.44574526 396.88158685 -167.5 402.5 C-180.99652533 408.7906465 -194.53903082 414.95256928 -208.16650391 420.95413208 C-222.8409856 427.42095448 -237.38404704 434.16117767 -251.90234375 440.97070312 C-252.74768677 441.36564468 -253.59302979 441.76058624 -254.46398926 442.16749573 C-256.04899102 442.90805645 -257.63265459 443.65149063 -259.21472168 444.39830017 C-262.45134445 445.90847629 -265.51723624 447.21432693 -269 448 C-267.49981439 443.89662151 -265.48683494 440.2290778 -263.24609375 436.49609375 C-262.87358994 435.869272 -262.50108612 435.24245026 -262.11729431 434.59663391 C-260.89438283 432.54136671 -259.66611483 430.48936208 -258.4375 428.4375 C-257.57681354 426.99456881 -256.71630156 425.55153353 -255.85595703 424.10839844 C-247.30741837 409.78506178 -238.64200417 395.53310176 -229.95825195 381.29150391 C-227.51182882 377.27888859 -225.06714645 373.26521976 -222.625 369.25 C-222.27741638 368.67858276 -221.92983276 368.10716553 -221.57171631 367.51843262 C-215.81637066 358.0504219 -210.14509936 348.53407262 -204.5 339 C-198.51061507 328.88445956 -192.48435319 318.79359679 -186.375 308.75 C-185.85338287 307.89239075 -185.85338287 307.89239075 -185.32122803 307.01745605 C-182.5364429 302.44038652 -179.74745795 297.86588018 -176.95825195 293.29150391 C-174.51182879 289.27888853 -172.06724706 285.26515859 -169.625 281.25 C-169.10412308 280.39387115 -169.10412308 280.39387115 -168.57272339 279.52044678 C-162.37935791 269.33433678 -156.29407597 259.08592153 -150.22515869 248.82531738 C-144.27456942 238.76978579 -138.20976841 228.79527049 -132.05615234 218.86230469 C-126.79163671 210.3412933 -121.66149197 201.74576968 -116.5625 193.125 C-110.55338676 182.96700386 -104.50949814 172.8328441 -98.375 162.75 C-98.02734589 162.17844177 -97.67969177 161.60688354 -97.32150269 161.01800537 C-94.53662426 156.44075371 -91.7475642 151.86605443 -88.95825195 147.29150391 C-86.51182882 143.27888859 -84.06714645 139.26521976 -81.625 135.25 C-81.27741638 134.67858276 -80.92983276 134.10716553 -80.57171631 133.51843262 C-74.81637066 124.0504219 -69.14509936 114.53407262 -63.5 105 C-57.51061507 94.88445956 -51.48435319 84.79359679 -45.375 74.75 C-45.02725525 74.1782605 -44.6795105 73.606521 -44.32122803 73.01745605 C-41.5364429 68.44038652 -38.74745795 63.86588018 -35.95825195 59.29150391 C-33.51182876 55.27888849 -31.06734338 51.26510001 -28.625 47.25 C-27.94034668 46.12456787 -27.25569336 44.99913574 -26.55029297 43.83959961 C-19.94148524 32.95768155 -13.45021459 22.00617274 -6.97900391 11.04199219 C-6.58641388 10.37799911 -6.19382385 9.71400604 -5.78933716 9.02989197 C-5.05030162 7.77981741 -4.31250983 6.52900648 -3.57614136 5.27735901 C-1.11250827 1.11250827 -1.11250827 1.11250827 0 0 Z " fill="#8991B1" transform="translate(479,40)"/>
<path d="M0 0 C0 93.06 0 186.12 0 282 C-3.96389316 280.41444274 -7.23861694 278.79822994 -10.8828125 276.6484375 C-11.44591629 276.31750092 -12.00902008 275.98656433 -12.58918762 275.64559937 C-14.43646501 274.55876547 -16.28074238 273.466949 -18.125 272.375 C-19.42374803 271.60942653 -20.72266006 270.8441312 -22.02172852 270.07910156 C-26.0174098 267.72433427 -30.00895357 265.36261151 -34 263 C-35.21563449 262.2808855 -36.43129132 261.56180875 -37.64697266 260.84277344 C-43.31139535 257.49180102 -48.97308221 254.13623537 -54.6328125 250.77734375 C-60.52206657 247.28231914 -66.416042 243.79535457 -72.3125 240.3125 C-73.64559204 239.52504395 -73.64559204 239.52504395 -75.00561523 238.72167969 C-76.78057085 237.67329226 -78.55555441 236.62495214 -80.33056641 235.57666016 C-84.88748494 232.88518587 -89.44370119 230.19252321 -94 227.5 C-95.83333009 226.41666119 -97.66666342 225.33332785 -99.5 224.25 C-103.16666667 222.08333333 -106.83333333 219.91666667 -110.5 217.75 C-111.86064575 216.94598755 -111.86064575 216.94598755 -113.2487793 216.12573242 C-115.0861946 215.03997961 -116.92359689 213.95420479 -118.76098633 212.8684082 C-123.28176042 210.19691439 -127.80274334 207.52577545 -132.32421875 204.85546875 C-142.96554957 198.57023827 -153.60101139 192.27518174 -164.23236084 185.9730835 C-174.59295994 179.83166666 -184.96004974 173.70131144 -195.33056641 167.57666016 C-199.88748494 164.88518587 -204.44370119 162.19252321 -209 159.5 C-210.83333009 158.41666119 -212.66666342 157.33332785 -214.5 156.25 C-218.16666667 154.08333333 -221.83333333 151.91666667 -225.5 149.75 C-226.40878906 149.2130249 -227.31757813 148.6760498 -228.25390625 148.12280273 C-230.07434856 147.04701326 -231.89466256 145.97100662 -233.71484375 144.89477539 C-238.49434229 142.0691626 -243.27647393 139.24813817 -248.0625 136.43359375 C-249.05636719 135.84835937 -250.05023438 135.263125 -251.07421875 134.66015625 C-252.97183209 133.54286989 -254.87022344 132.42690345 -256.76953125 131.3125 C-261.27076276 128.6603501 -265.69115948 125.95524095 -270 123 C-268.46187417 119.92374834 -265.50017135 119.27113785 -262.46875 117.97265625 C-261.44044067 117.52212135 -261.44044067 117.52212135 -260.39135742 117.06248474 C-258.89070591 116.40526091 -257.3888552 115.75077027 -255.88598633 115.09863281 C-251.77130295 113.31180009 -247.66671156 111.50213677 -243.5625 109.69140625 C-242.69911011 109.31074005 -241.83572021 108.93007385 -240.94616699 108.53787231 C-231.40562329 104.3175762 -221.9529677 99.91205004 -212.5 95.5 C-198.99355594 89.20238767 -185.43749257 83.04184383 -171.80126953 77.03076172 C-159.63332275 71.6626292 -147.55425474 66.11841315 -135.5 60.5 C-121.99263971 54.2043034 -108.43753537 48.04186269 -94.80126953 42.03076172 C-82.6333014 36.66261978 -70.55466786 31.11755974 -58.5 25.5 C-44.90031807 19.16564761 -31.26587656 12.91959083 -17.5625 6.8125 C-16.77939453 6.46203613 -15.99628906 6.11157227 -15.18945312 5.75048828 C-13.00441485 4.77353298 -10.81714141 3.801801 -8.62890625 2.83203125 C-7.98204361 2.5424202 -7.33518097 2.25280914 -6.66871643 1.954422 C-2.23043695 0 -2.23043695 0 0 0 Z " fill="#61678F" transform="translate(480,366)"/>
<path d="M0 0 C5.8258819 1.94196063 11.20903704 3.85888618 16.70703125 6.44921875 C17.4169371 6.77846848 18.12684296 7.1077182 18.85826111 7.44694519 C20.3828559 8.15430627 21.90652082 8.86367447 23.42932129 9.57489014 C27.56363079 11.50503222 31.70555314 13.41868428 35.84765625 15.33203125 C36.69742035 15.72479248 37.54718445 16.11755371 38.42269897 16.5222168 C46.82539894 20.3971421 55.28331732 24.14254637 63.75 27.875 C77.61503171 33.99302245 91.37672691 40.3156702 105.1126709 46.7177124 C117.02350155 52.26631042 128.97660992 57.69988245 141 63 C153.90293338 68.68783539 166.71904262 74.54323988 179.5 80.5 C193.89906591 87.20980552 208.3547955 93.76864332 222.88574219 100.1875 C233.53687683 104.89380836 244.1530064 109.67302134 254.75 114.5 C255.84380981 114.99820251 255.84380981 114.99820251 256.9597168 115.50646973 C260.97412191 117.33550873 264.98752578 119.16672811 269 121 C269 121.99 269 122.98 269 124 C268.31711914 124.39155273 267.63423828 124.78310547 266.93066406 125.18652344 C253.85445448 132.69055929 240.82307317 140.25358689 227.9140625 148.04296875 C219.90486705 152.87332323 211.83881106 157.60818269 203.78222656 162.35888672 C199.1864592 165.06972809 194.59335616 167.78507573 190 170.5 C188.16667963 171.58335527 186.33334629 172.6666886 184.5 173.75 C183.13875 174.554375 183.13875 174.554375 181.75 175.375 C107.5 219.25 107.5 219.25 104.7512207 220.87426758 C102.9138054 221.96002039 101.07640311 223.04579521 99.23901367 224.1315918 C94.71823958 226.80308561 90.19725666 229.47422455 85.67578125 232.14453125 C76.1901603 237.74714947 66.70831974 243.3560756 57.23153687 248.97363281 C53.23922535 251.34007249 49.24655785 253.70591151 45.25390625 256.07177734 C43.1574465 257.31411221 41.06108472 258.55661242 38.96484375 259.79931641 C29.0586884 265.67068002 19.14210095 271.52356019 9.1875 277.3125 C7.96740234 278.02466675 7.96740234 278.02466675 6.72265625 278.7512207 C1.11739811 282 1.11739811 282 0 282 C0 188.94 0 95.88 0 0 Z " fill="#454A74" transform="translate(480,366)"/>
<path d="M0 0 C-1.61901792 5.0446229 -4.63031777 8.8626461 -7.75 13.0625 C-8.93363955 14.67739835 -10.1158824 16.29332115 -11.296875 17.91015625 C-11.90853516 18.74691895 -12.52019531 19.58368164 -13.15039062 20.44580078 C-16.15374951 24.59325862 -19.07607569 28.79634691 -22 33 C-26.96367206 40.12378861 -32.00389841 47.18541728 -37.10546875 54.2109375 C-41.7352015 60.6006413 -46.25695406 67.06257904 -50.76733398 73.53686523 C-54.64182201 79.088202 -58.57948317 84.5886333 -62.5625 90.0625 C-67.01031557 96.17580311 -71.32345543 102.36528733 -75.5625 108.625 C-80.07228834 115.28117989 -84.75597562 121.75913755 -89.62353516 128.15722656 C-93.51021771 133.28739141 -97.17474987 138.54295748 -100.79003906 143.86669922 C-104.22833834 148.91631836 -107.77841149 153.87462896 -111.375 158.8125 C-115.90193162 165.03240858 -120.30567697 171.32174293 -124.625 177.6875 C-128.93370399 184.03463392 -133.34371059 190.28161545 -137.91113281 196.44482422 C-141.81886334 201.72435747 -145.60720266 207.08245089 -149.38134766 212.45800781 C-153.01952921 217.63205092 -156.71769353 222.75942932 -160.4375 227.875 C-164.94112138 234.07522799 -169.32107199 240.34715397 -173.625 246.6875 C-177.933847 253.0345408 -182.34370633 259.2816097 -186.91113281 265.44482422 C-190.81886334 270.72435747 -194.60720266 276.08245089 -198.38134766 281.45800781 C-202.01952921 286.63205092 -205.71769353 291.75942932 -209.4375 296.875 C-213.94112138 303.07522799 -218.32107199 309.34715397 -222.625 315.6875 C-226.933847 322.0345408 -231.34370633 328.2816097 -235.91113281 334.44482422 C-239.81197458 339.71505043 -243.59360795 345.06369881 -247.36157227 350.42944336 C-251.72938992 356.64014435 -256.16967611 362.79675485 -260.63623047 368.93676758 C-262.92709729 372.0932893 -265.18556019 375.24974384 -267.3125 378.51953125 C-267.869375 379.33808594 -268.42625 380.15664063 -269 381 C-269.33 381 -269.66 381 -270 381 C-270.37390507 352.22802702 -270.65597699 323.4564185 -270.82899475 294.68250465 C-270.9114697 281.32178612 -271.02388632 267.96275934 -271.20703125 254.60302734 C-271.36660165 242.95740831 -271.46975195 231.31288288 -271.50541592 219.666201 C-271.52626262 213.49968847 -271.57517229 207.33630414 -271.69168091 201.17079544 C-271.8005296 195.3634351 -271.83374476 189.56048081 -271.8097229 183.75219727 C-271.8141148 181.62435291 -271.84582 179.4963571 -271.9072876 177.36939621 C-272.3370956 161.72567794 -272.3370956 161.72567794 -268.43984985 157.18044806 C-264.64677026 154.00518448 -260.47381104 151.84743441 -255.95820618 149.88012099 C-253.15320973 148.61940785 -250.57601123 147.02928492 -247.9609375 145.41796875 C-246.10034714 144.33874796 -244.23835584 143.26193894 -242.375 142.1875 C-240.30177875 140.98489994 -238.22886894 139.78176281 -236.15625 138.578125 C-235.12886719 137.98193359 -234.10148438 137.38574219 -233.04296875 136.77148438 C-228.30768611 134.01480828 -223.59022495 131.22830737 -218.875 128.4375 C-217.97571777 127.90535889 -217.07643555 127.37321777 -216.14990234 126.82495117 C-214.33908123 125.753118 -212.52837125 124.68109706 -210.71777344 123.60888672 C-206.14691273 120.90299631 -201.57333438 118.20170671 -197 115.5 C-191.58103397 112.29855771 -186.1624092 109.0965501 -180.74609375 105.890625 C-172.85527645 101.22166643 -164.9614726 96.55825951 -157.046875 91.9296875 C-145.49753196 85.17464772 -133.96111326 78.4042851 -122.5 71.5 C-111.63196478 64.95299083 -100.69784246 58.52435555 -89.74594116 52.11920166 C-89.14528839 51.76791199 -88.54463562 51.41662231 -87.92578125 51.0546875 C-87.33084869 50.70678162 -86.73591614 50.35887573 -86.12295532 50.00042725 C-80.7387125 46.85033286 -75.36759483 43.67835222 -70 40.5 C-64.03336996 36.96693679 -58.06007115 33.44572123 -52.07421875 29.9453125 C-39.97611494 22.86996646 -27.89309081 15.77317874 -15.875 8.5625 C-14.82014404 7.92973145 -13.76528809 7.29696289 -12.6784668 6.64501953 C-1.6306855 0 -1.6306855 0 0 0 Z " fill="#61678F" transform="translate(750,539)"/>
</svg>
