<svg version="1.1" id="Layer_1" xmlns="http://www.w3.org/2000/svg" xmlns:xlink="http://www.w3.org/1999/xlink" x="0px" y="0px"
	 width="100%" viewBox="0 0 722 413" enable-background="new 0 0 722 413" xml:space="preserve">
<path fill="#000000" opacity="1.000000" stroke="none" 
	d="
M519.000000,414.000000 
	C346.000000,414.000000 173.500000,414.000000 1.000000,414.000000 
	C1.000000,276.333344 1.000000,138.666672 1.000000,1.000000 
	C241.666672,1.000000 482.333344,1.000000 723.000000,1.000000 
	C723.000000,138.666672 723.000000,276.333344 723.000000,414.000000 
	C655.166687,414.000000 587.333313,414.000000 519.000000,414.000000 
M248.890930,301.928741 
	C248.708710,301.788361 248.526489,301.647949 248.371933,300.684448 
	C249.769287,292.899078 251.166641,285.113708 252.602966,277.111145 
	C265.309509,277.111145 277.622192,277.166290 289.933563,277.064514 
	C292.388641,277.044250 294.958862,276.780548 297.264709,276.002747 
	C301.364502,274.619812 303.188263,271.437714 303.011780,267.090027 
	C302.840729,262.876068 300.616913,260.182037 296.712708,259.088470 
	C294.344055,258.424988 291.800018,258.137817 289.331818,258.121155 
	C276.002777,258.031097 262.672729,258.050110 249.343231,258.087646 
	C238.849228,258.117188 235.320328,260.880310 233.365875,271.261993 
	C230.780792,284.993469 228.514542,298.784821 226.081512,312.545166 
	C225.328979,316.801239 226.033340,320.479950 229.782684,323.163177 
	C233.670013,325.945129 237.619965,325.653778 241.450378,323.246704 
	C244.825058,321.126038 247.966461,318.636871 251.313278,316.468506 
	C263.215302,308.757294 279.017365,314.303497 282.602325,327.957062 
	C283.953583,333.103302 284.047546,338.915894 283.269226,344.212311 
	C281.823883,354.048004 275.350128,360.720062 267.505890,362.043610 
	C257.700562,363.698059 249.350525,359.641998 244.046463,350.590607 
	C242.955139,348.728302 242.105225,346.723328 240.994415,344.873932 
	C238.148727,340.136139 233.257462,338.291260 228.651398,340.118225 
	C224.150452,341.903473 222.001953,346.756317 223.404083,352.201233 
	C225.345917,359.742065 229.467743,365.790161 235.858170,370.308411 
	C250.661789,380.775085 274.223053,380.891968 289.473450,369.947571 
	C303.655273,359.770020 308.273132,345.124084 305.622253,328.543732 
	C303.150940,313.086090 293.651215,302.937592 278.431702,298.545959 
	C268.214691,295.597778 258.699432,298.306000 248.890930,301.928741 
M418.678589,175.090714 
	C422.025452,168.769913 421.571838,165.661194 416.302032,161.085190 
	C411.558838,156.966492 406.669373,153.016235 402.282074,149.356750 
	C405.198334,142.533310 408.198395,136.406738 410.446198,130.015594 
	C412.936829,122.934097 410.901947,118.034836 405.376770,115.798157 
	C400.008484,113.625008 396.085846,115.710327 392.652191,122.779236 
	C390.732788,126.730698 389.042450,130.793411 386.880890,135.629272 
	C379.879333,127.499420 373.480316,120.069252 367.268250,112.856117 
	C372.838257,108.293953 378.649231,104.302910 383.523712,99.383904 
	C394.048370,88.763123 392.472229,72.028183 380.497650,63.066280 
	C371.851715,56.595566 362.011932,55.306747 351.577271,56.586399 
	C327.070862,59.591736 316.716400,82.197426 331.559296,101.946320 
	C333.321259,104.290634 334.879852,106.787788 336.322021,108.904839 
	C330.891785,112.703896 325.563171,115.872627 320.880646,119.809814 
	C305.100555,133.078033 304.870331,155.396973 320.167023,168.700333 
	C328.050293,175.556351 337.484772,178.407639 347.714172,178.945526 
	C363.170837,179.758286 376.972839,175.574188 388.305206,164.826859 
	C393.637329,168.923035 398.528687,172.951920 403.701782,176.579025 
	C408.965149,180.269424 413.068024,179.825912 418.678589,175.090714 
M235.570679,66.916542 
	C232.523468,64.912941 229.676651,62.465958 226.394394,60.982372 
	C212.071289,54.508297 197.233139,54.688641 182.482361,59.012783 
	C167.213348,63.488838 158.466949,74.113480 157.955902,87.596375 
	C157.383453,102.699562 164.275284,112.821304 179.982758,118.930962 
	C186.461700,121.451042 193.332321,122.950104 199.981247,125.051308 
	C206.297791,127.047485 212.983582,128.425522 218.745377,131.501846 
	C228.081680,136.486694 228.826813,147.938553 221.024460,155.044922 
	C208.468765,166.480637 186.278442,162.281311 179.009003,147.092804 
	C177.720139,144.399918 176.641266,141.581589 175.109711,139.035110 
	C172.094025,134.020905 167.462601,132.364395 162.331909,134.143280 
	C157.977005,135.653198 155.335114,139.934753 155.718842,145.272247 
	C156.492432,156.033218 162.214737,164.047134 170.579330,170.155624 
	C186.849564,182.037460 218.016327,182.061951 234.543335,170.536072 
	C246.140152,162.448471 250.901825,151.149857 249.770706,137.324570 
	C248.667572,123.841599 240.637833,115.515366 228.531555,110.915260 
	C221.407135,108.208138 213.981216,106.297211 206.700516,103.997734 
	C200.380020,102.001518 193.922424,100.329315 187.810501,97.819656 
	C183.377075,95.999222 179.903397,92.553787 180.136887,87.149223 
	C180.367783,81.804626 183.621033,78.350464 188.178085,75.992592 
	C200.860413,69.430557 215.556213,73.778961 222.430939,86.108574 
	C223.240845,87.561119 224.016373,89.037903 224.912231,90.436577 
	C228.391907,95.869247 232.919983,97.645935 237.968597,95.617584 
	C242.705093,93.714638 246.229782,87.731636 244.318054,82.413528 
	C242.410248,77.106354 238.906815,72.372765 235.570679,66.916542 
M502.034454,172.294037 
	C502.581451,168.708862 503.523285,165.132141 503.600189,161.536896 
	C503.816101,151.443039 503.675446,141.341568 503.675446,130.916779 
	C505.272186,130.916779 506.241974,130.961884 507.206512,130.909927 
	C518.988770,130.275299 530.962463,130.734634 542.508911,128.732834 
	C561.947876,125.362709 571.267029,111.274048 569.998535,89.905113 
	C568.956604,72.352165 556.899231,60.159794 538.250366,58.983204 
	C524.307129,58.103497 510.293396,58.223125 496.309570,58.137108 
	C483.472931,58.058144 479.624817,61.959705 479.562073,74.802658 
	C479.484741,90.629044 479.517181,106.456154 479.550415,122.282852 
	C479.581543,137.107697 479.512787,151.935776 479.817932,166.755630 
	C479.950012,173.170624 483.044006,177.003006 488.074127,178.530807 
	C493.361877,180.136871 497.782837,178.355560 502.034454,172.294037 
M385.451935,369.994141 
	C392.339783,364.580139 397.384216,357.659821 399.579803,349.296722 
	C405.316010,327.447083 405.452209,305.381195 398.766785,283.769989 
	C393.493774,266.724396 380.058350,256.972534 363.354309,256.253845 
	C346.281403,255.519241 332.026245,263.458405 326.360413,279.577271 
	C317.974396,303.434875 317.207794,328.251038 325.855713,352.080566 
	C335.059479,377.441711 363.540863,385.574463 385.451935,369.994141 
M490.330017,363.803986 
	C493.204834,358.232544 497.007294,352.938171 498.770538,347.034729 
	C503.069702,332.641144 502.580627,317.763580 501.335175,302.928192 
	C500.388916,291.657013 497.839172,280.937500 491.094727,271.564941 
	C474.761536,248.867050 438.641449,251.698181 426.113525,276.657318 
	C421.372955,286.101868 420.258392,296.342133 419.502075,306.653931 
	C418.448212,321.022461 418.670929,335.361145 423.215729,349.167145 
	C427.885742,363.353729 437.162720,373.501404 452.098969,376.846344 
	C466.916107,380.164551 479.732391,375.932404 490.330017,363.803986 
z"/>
<path fill="#FCFCFC" opacity="1.000000" stroke="none" 
	d="
M418.417053,175.367798 
	C413.068024,179.825912 408.965149,180.269424 403.701782,176.579025 
	C398.528687,172.951920 393.637329,168.923035 388.305206,164.826859 
	C376.972839,175.574188 363.170837,179.758286 347.714172,178.945526 
	C337.484772,178.407639 328.050293,175.556351 320.167023,168.700333 
	C304.870331,155.396973 305.100555,133.078033 320.880646,119.809814 
	C325.563171,115.872627 330.891785,112.703896 336.322021,108.904839 
	C334.879852,106.787788 333.321259,104.290634 331.559296,101.946320 
	C316.716400,82.197426 327.070862,59.591736 351.577271,56.586399 
	C362.011932,55.306747 371.851715,56.595566 380.497650,63.066280 
	C392.472229,72.028183 394.048370,88.763123 383.523712,99.383904 
	C378.649231,104.302910 372.838257,108.293953 367.268250,112.856117 
	C373.480316,120.069252 379.879333,127.499420 386.880890,135.629272 
	C389.042450,130.793411 390.732788,126.730698 392.652191,122.779236 
	C396.085846,115.710327 400.008484,113.625008 405.376770,115.798157 
	C410.901947,118.034836 412.936829,122.934097 410.446198,130.015594 
	C408.198395,136.406738 405.198334,142.533310 402.282074,149.356750 
	C406.669373,153.016235 411.558838,156.966492 416.302032,161.085190 
	C421.571838,165.661194 422.025452,168.769913 418.417053,175.367798 
M354.265991,130.222107 
	C352.022644,127.622673 349.779327,125.023239 347.277527,122.124313 
	C343.876953,124.655441 340.677673,126.746056 337.817078,129.227127 
	C332.057343,134.222687 329.651825,140.489731 331.975952,147.991882 
	C334.333008,155.600220 339.553497,160.416641 347.364960,161.958221 
	C358.311432,164.118469 366.622375,159.077805 373.889130,151.853653 
	C367.430878,144.733124 361.089355,137.741287 354.265991,130.222107 
M360.927734,96.580917 
	C363.360779,94.584724 366.023895,92.807602 368.177704,90.545517 
	C372.324554,86.190208 372.461578,79.405678 368.823273,75.086075 
	C364.690918,70.180031 356.192261,69.185631 350.672852,72.962387 
	C345.416260,76.559311 343.836914,82.076294 347.074921,87.728569 
	C349.507629,91.975159 352.670197,95.803642 355.645660,100.013229 
	C357.569489,98.755302 358.930603,97.865334 360.927734,96.580917 
z"/>
<path fill="#FCFCFC" opacity="1.000000" stroke="none" 
	d="
M235.836792,67.152130 
	C238.906815,72.372765 242.410248,77.106354 244.318054,82.413528 
	C246.229782,87.731636 242.705093,93.714638 237.968597,95.617584 
	C232.919983,97.645935 228.391907,95.869247 224.912231,90.436577 
	C224.016373,89.037903 223.240845,87.561119 222.430939,86.108574 
	C215.556213,73.778961 200.860413,69.430557 188.178085,75.992592 
	C183.621033,78.350464 180.367783,81.804626 180.136887,87.149223 
	C179.903397,92.553787 183.377075,95.999222 187.810501,97.819656 
	C193.922424,100.329315 200.380020,102.001518 206.700516,103.997734 
	C213.981216,106.297211 221.407135,108.208138 228.531555,110.915260 
	C240.637833,115.515366 248.667572,123.841599 249.770706,137.324570 
	C250.901825,151.149857 246.140152,162.448471 234.543335,170.536072 
	C218.016327,182.061951 186.849564,182.037460 170.579330,170.155624 
	C162.214737,164.047134 156.492432,156.033218 155.718842,145.272247 
	C155.335114,139.934753 157.977005,135.653198 162.331909,134.143280 
	C167.462601,132.364395 172.094025,134.020905 175.109711,139.035110 
	C176.641266,141.581589 177.720139,144.399918 179.009003,147.092804 
	C186.278442,162.281311 208.468765,166.480637 221.024460,155.044922 
	C228.826813,147.938553 228.081680,136.486694 218.745377,131.501846 
	C212.983582,128.425522 206.297791,127.047485 199.981247,125.051308 
	C193.332321,122.950104 186.461700,121.451042 179.982758,118.930962 
	C164.275284,112.821304 157.383453,102.699562 157.955902,87.596375 
	C158.466949,74.113480 167.213348,63.488838 182.482361,59.012783 
	C197.233139,54.688641 212.071289,54.508297 226.394394,60.982372 
	C229.676651,62.465958 232.523468,64.912941 235.836792,67.152130 
z"/>
<path fill="#FCFCFC" opacity="1.000000" stroke="none" 
	d="
M501.899353,172.654388 
	C497.782837,178.355560 493.361877,180.136871 488.074127,178.530807 
	C483.044006,177.003006 479.950012,173.170624 479.817932,166.755630 
	C479.512787,151.935776 479.581543,137.107697 479.550415,122.282852 
	C479.517181,106.456154 479.484741,90.629044 479.562073,74.802658 
	C479.624817,61.959705 483.472931,58.058144 496.309570,58.137108 
	C510.293396,58.223125 524.307129,58.103497 538.250366,58.983204 
	C556.899231,60.159794 568.956604,72.352165 569.998535,89.905113 
	C571.267029,111.274048 561.947876,125.362709 542.508911,128.732834 
	C530.962463,130.734634 518.988770,130.275299 507.206512,130.909927 
	C506.241974,130.961884 505.272186,130.916779 503.675446,130.916779 
	C503.675446,141.341568 503.816101,151.443039 503.600189,161.536896 
	C503.523285,165.132141 502.581451,168.708862 501.899353,172.654388 
M542.671509,105.021492 
	C549.577393,92.844452 545.042725,79.683052 532.434204,77.556541 
	C523.191162,75.997635 513.640625,76.261459 503.985291,75.698822 
	C503.985291,88.437599 503.985291,100.211357 503.985291,112.916878 
	C513.103638,112.465378 522.109314,112.561920 530.931091,111.335533 
	C534.870422,110.787903 538.440247,107.581863 542.671509,105.021492 
z"/>
<path fill="#FCFCFC" opacity="1.000000" stroke="none" 
	d="
M385.155273,370.192749 
	C363.540863,385.574463 335.059479,377.441711 325.855713,352.080566 
	C317.207794,328.251038 317.974396,303.434875 326.360413,279.577271 
	C332.026245,263.458405 346.281403,255.519241 363.354309,256.253845 
	C380.058350,256.972534 393.493774,266.724396 398.766785,283.769989 
	C405.452209,305.381195 405.316010,327.447083 399.579803,349.296722 
	C397.384216,357.659821 392.339783,364.580139 385.155273,370.192749 
M375.380249,280.287720 
	C371.691193,274.046295 365.981995,272.136993 359.170166,273.005981 
	C352.649445,273.837799 348.956757,278.095917 346.857361,283.975739 
	C346.133575,286.002960 345.161377,288.083923 345.073395,290.172791 
	C344.458923,304.760590 343.570374,319.364197 343.795898,333.946899 
	C343.890747,340.078125 345.889160,346.392700 348.087555,352.222107 
	C350.559052,358.775604 356.056091,361.682587 363.208221,361.218079 
	C371.287109,360.693359 377.584839,355.202057 378.674805,344.403198 
	C380.171326,329.575867 380.475983,314.568573 380.244049,299.654694 
	C380.146484,293.379852 377.373016,287.146637 375.380249,280.287720 
z"/>
<path fill="#FCFCFC" opacity="1.000000" stroke="none" 
	d="
M490.099976,364.077759 
	C479.732391,375.932404 466.916107,380.164551 452.098969,376.846344 
	C437.162720,373.501404 427.885742,363.353729 423.215729,349.167145 
	C418.670929,335.361145 418.448212,321.022461 419.502075,306.653931 
	C420.258392,296.342133 421.372955,286.101868 426.113525,276.657318 
	C438.641449,251.698181 474.761536,248.867050 491.094727,271.564941 
	C497.839172,280.937500 500.388916,291.657013 501.335175,302.928192 
	C502.580627,317.763580 503.069702,332.641144 498.770538,347.034729 
	C497.007294,352.938171 493.204834,358.232544 490.099976,364.077759 
M442.052673,333.187866 
	C443.738525,339.898743 444.395203,347.104858 447.334198,353.212738 
	C452.702667,364.369446 467.915405,364.313873 473.964996,353.476471 
	C475.944397,349.930634 477.603668,345.770660 477.875153,341.786987 
	C478.754791,328.879089 479.357269,315.916718 479.179016,302.987549 
	C479.091217,296.618713 477.750000,290.045532 475.737427,283.975464 
	C472.510834,274.243927 463.280426,270.306366 454.104919,274.030273 
	C447.683777,276.636292 445.452515,282.491669 444.050964,288.556702 
	C440.718719,302.977020 441.013275,317.613708 442.052673,333.187866 
z"/>
<path fill="#FCFCFC" opacity="1.000000" stroke="none" 
	d="
M249.392456,302.402893 
	C258.699432,298.306000 268.214691,295.597778 278.431702,298.545959 
	C293.651215,302.937592 303.150940,313.086090 305.622253,328.543732 
	C308.273132,345.124084 303.655273,359.770020 289.473450,369.947571 
	C274.223053,380.891968 250.661789,380.775085 235.858170,370.308411 
	C229.467743,365.790161 225.345917,359.742065 223.404083,352.201233 
	C222.001953,346.756317 224.150452,341.903473 228.651398,340.118225 
	C233.257462,338.291260 238.148727,340.136139 240.994415,344.873932 
	C242.105225,346.723328 242.955139,348.728302 244.046463,350.590607 
	C249.350525,359.641998 257.700562,363.698059 267.505890,362.043610 
	C275.350128,360.720062 281.823883,354.048004 283.269226,344.212311 
	C284.047546,338.915894 283.953583,333.103302 282.602325,327.957062 
	C279.017365,314.303497 263.215302,308.757294 251.313278,316.468506 
	C247.966461,318.636871 244.825058,321.126038 241.450378,323.246704 
	C237.619965,325.653778 233.670013,325.945129 229.782684,323.163177 
	C226.033340,320.479950 225.328979,316.801239 226.081512,312.545166 
	C228.514542,298.784821 230.780792,284.993469 233.365875,271.261993 
	C235.320328,260.880310 238.849228,258.117188 249.343231,258.087646 
	C262.672729,258.050110 276.002777,258.031097 289.331818,258.121155 
	C291.800018,258.137817 294.344055,258.424988 296.712708,259.088470 
	C300.616913,260.182037 302.840729,262.876068 303.011780,267.090027 
	C303.188263,271.437714 301.364502,274.619812 297.264709,276.002747 
	C294.958862,276.780548 292.388641,277.044250 289.933563,277.064514 
	C277.622192,277.166290 265.309509,277.111145 252.602966,277.111145 
	C251.166641,285.113708 249.769287,292.899078 248.230957,301.341705 
	C248.524124,302.133606 248.958298,302.268250 249.392456,302.402893 
z"/>
<path fill="#040404" opacity="1.000000" stroke="none" 
	d="
M354.506897,130.485779 
	C361.089355,137.741287 367.430878,144.733124 373.889130,151.853653 
	C366.622375,159.077805 358.311432,164.118469 347.364960,161.958221 
	C339.553497,160.416641 334.333008,155.600220 331.975952,147.991882 
	C329.651825,140.489731 332.057343,134.222687 337.817078,129.227127 
	C340.677673,126.746056 343.876953,124.655441 347.277527,122.124313 
	C349.779327,125.023239 352.022644,127.622673 354.506897,130.485779 
z"/>
<path fill="#040404" opacity="1.000000" stroke="none" 
	d="
M360.609711,96.778137 
	C358.930603,97.865334 357.569489,98.755302 355.645660,100.013229 
	C352.670197,95.803642 349.507629,91.975159 347.074921,87.728569 
	C343.836914,82.076294 345.416260,76.559311 350.672852,72.962387 
	C356.192261,69.185631 364.690918,70.180031 368.823273,75.086075 
	C372.461578,79.405678 372.324554,86.190208 368.177704,90.545517 
	C366.023895,92.807602 363.360779,94.584724 360.609711,96.778137 
z"/>
<path fill="#040404" opacity="1.000000" stroke="none" 
	d="
M542.424622,105.301903 
	C538.440247,107.581863 534.870422,110.787903 530.931091,111.335533 
	C522.109314,112.561920 513.103638,112.465378 503.985291,112.916878 
	C503.985291,100.211357 503.985291,88.437599 503.985291,75.698822 
	C513.640625,76.261459 523.191162,75.997635 532.434204,77.556541 
	C545.042725,79.683052 549.577393,92.844452 542.424622,105.301903 
z"/>
<path fill="#020202" opacity="1.000000" stroke="none" 
	d="
M375.598145,280.591125 
	C377.373016,287.146637 380.146484,293.379852 380.244049,299.654694 
	C380.475983,314.568573 380.171326,329.575867 378.674805,344.403198 
	C377.584839,355.202057 371.287109,360.693359 363.208221,361.218079 
	C356.056091,361.682587 350.559052,358.775604 348.087555,352.222107 
	C345.889160,346.392700 343.890747,340.078125 343.795898,333.946899 
	C343.570374,319.364197 344.458923,304.760590 345.073395,290.172791 
	C345.161377,288.083923 346.133575,286.002960 346.857361,283.975739 
	C348.956757,278.095917 352.649445,273.837799 359.170166,273.005981 
	C365.981995,272.136993 371.691193,274.046295 375.598145,280.591125 
z"/>
<path fill="#030303" opacity="1.000000" stroke="none" 
	d="
M442.027466,332.724731 
	C441.013275,317.613708 440.718719,302.977020 444.050964,288.556702 
	C445.452515,282.491669 447.683777,276.636292 454.104919,274.030273 
	C463.280426,270.306366 472.510834,274.243927 475.737427,283.975464 
	C477.750000,290.045532 479.091217,296.618713 479.179016,302.987549 
	C479.357269,315.916718 478.754791,328.879089 477.875153,341.786987 
	C477.603668,345.770660 475.944397,349.930634 473.964996,353.476471 
	C467.915405,364.313873 452.702667,364.369446 447.334198,353.212738 
	C444.395203,347.104858 443.738525,339.898743 442.027466,332.724731 
z"/>
<path fill="#000000" opacity="1.000000" stroke="none" 
	d="
M249.141693,302.165833 
	C248.958298,302.268250 248.524124,302.133606 248.217102,301.753235 
	C248.526489,301.647949 248.708710,301.788361 249.141693,302.165833 
z"/>
</svg>